<mxfile host="app.diagrams.net" agent="Mozilla/5.0 (Windows NT 10.0; Win64; x64) AppleWebKit/537.36 (KHTML, like Gecko) Chrome/131.0.0.0 Safari/537.36 Edg/131.0.0.0" version="24.9.1">
  <diagram name="Seite-1" id="NfUZAoLwjypuZJ1sIUXl">
    <mxGraphModel dx="4734" dy="3015" grid="1" gridSize="10" guides="1" tooltips="1" connect="1" arrows="1" fold="1" page="1" pageScale="1" pageWidth="1169" pageHeight="827" math="0" shadow="0">
      <root>
        <mxCell id="0" />
        <mxCell id="1" parent="0" />
        <mxCell id="6S9Bv0-yqiVQl9u7fNV4-162" style="rounded=0;orthogonalLoop=1;jettySize=auto;html=1;exitX=0.75;exitY=0;exitDx=0;exitDy=0;entryX=0;entryY=0.5;entryDx=0;entryDy=0;endArrow=none;endFill=0;strokeWidth=1;fontStyle=1" parent="1" source="6S9Bv0-yqiVQl9u7fNV4-14" target="6S9Bv0-yqiVQl9u7fNV4-284" edge="1">
          <mxGeometry relative="1" as="geometry">
            <mxPoint x="-51" y="-262" as="targetPoint" />
          </mxGeometry>
        </mxCell>
        <mxCell id="6S9Bv0-yqiVQl9u7fNV4-276" style="edgeStyle=none;shape=connector;rounded=0;orthogonalLoop=1;jettySize=auto;html=1;entryX=0.5;entryY=1;entryDx=0;entryDy=0;align=center;verticalAlign=middle;fontFamily=Helvetica;fontSize=11;fontColor=default;labelBackgroundColor=default;endArrow=none;endFill=0;exitX=0.389;exitY=0.032;exitDx=0;exitDy=0;exitPerimeter=0;strokeWidth=1;fontStyle=1" parent="1" source="6S9Bv0-yqiVQl9u7fNV4-14" target="6S9Bv0-yqiVQl9u7fNV4-268" edge="1">
          <mxGeometry relative="1" as="geometry">
            <mxPoint x="-325" y="619" as="sourcePoint" />
          </mxGeometry>
        </mxCell>
        <mxCell id="6S9Bv0-yqiVQl9u7fNV4-277" style="edgeStyle=none;shape=connector;rounded=0;orthogonalLoop=1;jettySize=auto;html=1;exitX=0.25;exitY=0;exitDx=0;exitDy=0;entryX=0.5;entryY=1;entryDx=0;entryDy=0;align=center;verticalAlign=middle;fontFamily=Helvetica;fontSize=11;fontColor=default;labelBackgroundColor=default;endArrow=none;endFill=0;strokeWidth=1;fontStyle=1" parent="1" source="6S9Bv0-yqiVQl9u7fNV4-14" target="6S9Bv0-yqiVQl9u7fNV4-269" edge="1">
          <mxGeometry relative="1" as="geometry" />
        </mxCell>
        <mxCell id="6S9Bv0-yqiVQl9u7fNV4-278" style="edgeStyle=none;shape=connector;rounded=0;orthogonalLoop=1;jettySize=auto;html=1;exitX=0.156;exitY=0;exitDx=0;exitDy=0;entryX=0.5;entryY=1;entryDx=0;entryDy=0;align=center;verticalAlign=middle;fontFamily=Helvetica;fontSize=11;fontColor=default;labelBackgroundColor=default;endArrow=none;endFill=0;strokeWidth=1;fontStyle=1;exitPerimeter=0;" parent="1" source="6S9Bv0-yqiVQl9u7fNV4-14" target="6S9Bv0-yqiVQl9u7fNV4-270" edge="1">
          <mxGeometry relative="1" as="geometry" />
        </mxCell>
        <mxCell id="6S9Bv0-yqiVQl9u7fNV4-279" style="edgeStyle=none;shape=connector;rounded=0;orthogonalLoop=1;jettySize=auto;html=1;exitX=0;exitY=0;exitDx=0;exitDy=0;entryX=0.5;entryY=1;entryDx=0;entryDy=0;align=center;verticalAlign=middle;fontFamily=Helvetica;fontSize=11;fontColor=default;labelBackgroundColor=default;endArrow=none;endFill=0;strokeWidth=1;fontStyle=1" parent="1" source="6S9Bv0-yqiVQl9u7fNV4-14" target="6S9Bv0-yqiVQl9u7fNV4-271" edge="1">
          <mxGeometry relative="1" as="geometry" />
        </mxCell>
        <mxCell id="6S9Bv0-yqiVQl9u7fNV4-280" style="edgeStyle=none;shape=connector;rounded=0;orthogonalLoop=1;jettySize=auto;html=1;exitX=0.148;exitY=1;exitDx=0;exitDy=0;entryX=0.5;entryY=0;entryDx=0;entryDy=0;align=center;verticalAlign=middle;fontFamily=Helvetica;fontSize=11;fontColor=default;labelBackgroundColor=default;endArrow=none;endFill=0;strokeWidth=1;fontStyle=1;exitPerimeter=0;" parent="1" source="6S9Bv0-yqiVQl9u7fNV4-14" target="6S9Bv0-yqiVQl9u7fNV4-272" edge="1">
          <mxGeometry relative="1" as="geometry" />
        </mxCell>
        <mxCell id="6S9Bv0-yqiVQl9u7fNV4-281" style="edgeStyle=none;shape=connector;rounded=0;orthogonalLoop=1;jettySize=auto;html=1;exitX=0.25;exitY=1;exitDx=0;exitDy=0;entryX=0.5;entryY=0;entryDx=0;entryDy=0;align=center;verticalAlign=middle;fontFamily=Helvetica;fontSize=11;fontColor=default;labelBackgroundColor=default;endArrow=none;endFill=0;strokeWidth=1;fontStyle=1" parent="1" source="6S9Bv0-yqiVQl9u7fNV4-14" target="6S9Bv0-yqiVQl9u7fNV4-273" edge="1">
          <mxGeometry relative="1" as="geometry" />
        </mxCell>
        <mxCell id="6S9Bv0-yqiVQl9u7fNV4-282" style="edgeStyle=none;shape=connector;rounded=0;orthogonalLoop=1;jettySize=auto;html=1;exitX=0.396;exitY=0.988;exitDx=0;exitDy=0;entryX=0.5;entryY=0;entryDx=0;entryDy=0;align=center;verticalAlign=middle;fontFamily=Helvetica;fontSize=11;fontColor=default;labelBackgroundColor=default;endArrow=none;endFill=0;exitPerimeter=0;strokeWidth=1;fontStyle=1" parent="1" source="6S9Bv0-yqiVQl9u7fNV4-14" target="6S9Bv0-yqiVQl9u7fNV4-274" edge="1">
          <mxGeometry relative="1" as="geometry" />
        </mxCell>
        <mxCell id="6S9Bv0-yqiVQl9u7fNV4-283" style="edgeStyle=none;shape=connector;rounded=0;orthogonalLoop=1;jettySize=auto;html=1;entryX=0.5;entryY=0;entryDx=0;entryDy=0;align=center;verticalAlign=middle;fontFamily=Helvetica;fontSize=11;fontColor=default;labelBackgroundColor=default;endArrow=none;endFill=0;exitX=0.5;exitY=1;exitDx=0;exitDy=0;strokeWidth=1;fontStyle=1" parent="1" source="6S9Bv0-yqiVQl9u7fNV4-14" target="6S9Bv0-yqiVQl9u7fNV4-275" edge="1">
          <mxGeometry relative="1" as="geometry">
            <mxPoint x="-295" y="739" as="sourcePoint" />
          </mxGeometry>
        </mxCell>
        <mxCell id="6S9Bv0-yqiVQl9u7fNV4-14" value="&lt;font style=&quot;font-size: 18px;&quot;&gt;Computer_&lt;br&gt;Setup&lt;/font&gt;" style="rounded=0;whiteSpace=wrap;html=1;strokeWidth=1;fontStyle=1" parent="1" vertex="1">
          <mxGeometry x="-365" y="663" width="135" height="60" as="geometry" />
        </mxCell>
        <mxCell id="6S9Bv0-yqiVQl9u7fNV4-266" style="edgeStyle=none;shape=connector;rounded=0;orthogonalLoop=1;jettySize=auto;html=1;exitX=1;exitY=0;exitDx=0;exitDy=0;entryX=0.5;entryY=1;entryDx=0;entryDy=0;align=center;verticalAlign=middle;fontFamily=Helvetica;fontSize=11;fontColor=default;labelBackgroundColor=default;endArrow=none;endFill=0;strokeWidth=1;fontStyle=1" parent="1" source="6S9Bv0-yqiVQl9u7fNV4-15" target="6S9Bv0-yqiVQl9u7fNV4-264" edge="1">
          <mxGeometry relative="1" as="geometry" />
        </mxCell>
        <mxCell id="6S9Bv0-yqiVQl9u7fNV4-267" style="edgeStyle=none;shape=connector;rounded=0;orthogonalLoop=1;jettySize=auto;html=1;exitX=1;exitY=1;exitDx=0;exitDy=0;entryX=0.5;entryY=0;entryDx=0;entryDy=0;align=center;verticalAlign=middle;fontFamily=Helvetica;fontSize=11;fontColor=default;labelBackgroundColor=default;endArrow=none;endFill=0;strokeWidth=1;fontStyle=1" parent="1" source="6S9Bv0-yqiVQl9u7fNV4-15" target="6S9Bv0-yqiVQl9u7fNV4-265" edge="1">
          <mxGeometry relative="1" as="geometry" />
        </mxCell>
        <mxCell id="6S9Bv0-yqiVQl9u7fNV4-15" value="&lt;font style=&quot;font-size: 25px;&quot;&gt;Brand&lt;/font&gt;" style="rounded=0;whiteSpace=wrap;html=1;strokeWidth=1;fontStyle=1" parent="1" vertex="1">
          <mxGeometry x="924" y="663" width="135" height="60" as="geometry" />
        </mxCell>
        <mxCell id="6S9Bv0-yqiVQl9u7fNV4-165" style="edgeStyle=none;rounded=0;orthogonalLoop=1;jettySize=auto;html=1;exitX=1;exitY=0.5;exitDx=0;exitDy=0;entryX=0;entryY=0.5;entryDx=0;entryDy=0;endArrow=none;endFill=0;strokeWidth=1;fontStyle=1" parent="1" source="6S9Bv0-yqiVQl9u7fNV4-16" target="6S9Bv0-yqiVQl9u7fNV4-292" edge="1">
          <mxGeometry relative="1" as="geometry">
            <mxPoint x="725" y="22" as="targetPoint" />
          </mxGeometry>
        </mxCell>
        <mxCell id="6S9Bv0-yqiVQl9u7fNV4-250" style="edgeStyle=none;shape=connector;rounded=0;orthogonalLoop=1;jettySize=auto;html=1;exitX=0;exitY=0;exitDx=0;exitDy=0;entryX=0.5;entryY=1;entryDx=0;entryDy=0;align=center;verticalAlign=middle;fontFamily=Helvetica;fontSize=11;fontColor=default;labelBackgroundColor=default;endArrow=none;endFill=0;strokeWidth=1;fontStyle=1" parent="1" source="6S9Bv0-yqiVQl9u7fNV4-16" target="6S9Bv0-yqiVQl9u7fNV4-63" edge="1">
          <mxGeometry relative="1" as="geometry" />
        </mxCell>
        <mxCell id="6S9Bv0-yqiVQl9u7fNV4-252" style="edgeStyle=none;shape=connector;rounded=0;orthogonalLoop=1;jettySize=auto;html=1;exitX=0.25;exitY=0;exitDx=0;exitDy=0;entryX=0.5;entryY=1;entryDx=0;entryDy=0;align=center;verticalAlign=middle;fontFamily=Helvetica;fontSize=11;fontColor=default;labelBackgroundColor=default;endArrow=none;endFill=0;strokeWidth=1;fontStyle=1" parent="1" source="6S9Bv0-yqiVQl9u7fNV4-16" target="6S9Bv0-yqiVQl9u7fNV4-61" edge="1">
          <mxGeometry relative="1" as="geometry" />
        </mxCell>
        <mxCell id="6S9Bv0-yqiVQl9u7fNV4-257" style="edgeStyle=none;shape=connector;rounded=0;orthogonalLoop=1;jettySize=auto;html=1;exitX=0.75;exitY=0;exitDx=0;exitDy=0;entryX=0.5;entryY=1;entryDx=0;entryDy=0;align=center;verticalAlign=middle;fontFamily=Helvetica;fontSize=11;fontColor=default;labelBackgroundColor=default;endArrow=none;endFill=0;strokeWidth=1;fontStyle=1" parent="1" source="6S9Bv0-yqiVQl9u7fNV4-16" target="6S9Bv0-yqiVQl9u7fNV4-66" edge="1">
          <mxGeometry relative="1" as="geometry" />
        </mxCell>
        <mxCell id="6S9Bv0-yqiVQl9u7fNV4-258" style="edgeStyle=none;shape=connector;rounded=0;orthogonalLoop=1;jettySize=auto;html=1;exitX=1;exitY=1;exitDx=0;exitDy=0;entryX=0.5;entryY=0;entryDx=0;entryDy=0;align=center;verticalAlign=middle;fontFamily=Helvetica;fontSize=11;fontColor=default;labelBackgroundColor=default;endArrow=none;endFill=0;strokeWidth=1;fontStyle=1" parent="1" source="6S9Bv0-yqiVQl9u7fNV4-16" target="6S9Bv0-yqiVQl9u7fNV4-72" edge="1">
          <mxGeometry relative="1" as="geometry" />
        </mxCell>
        <mxCell id="6S9Bv0-yqiVQl9u7fNV4-259" style="edgeStyle=none;shape=connector;rounded=0;orthogonalLoop=1;jettySize=auto;html=1;exitX=0.75;exitY=1;exitDx=0;exitDy=0;entryX=0.5;entryY=0;entryDx=0;entryDy=0;align=center;verticalAlign=middle;fontFamily=Helvetica;fontSize=11;fontColor=default;labelBackgroundColor=default;endArrow=none;endFill=0;strokeWidth=1;fontStyle=1" parent="1" source="6S9Bv0-yqiVQl9u7fNV4-16" target="6S9Bv0-yqiVQl9u7fNV4-71" edge="1">
          <mxGeometry relative="1" as="geometry" />
        </mxCell>
        <mxCell id="6S9Bv0-yqiVQl9u7fNV4-260" style="edgeStyle=none;shape=connector;rounded=0;orthogonalLoop=1;jettySize=auto;html=1;exitX=0.25;exitY=1;exitDx=0;exitDy=0;entryX=0.5;entryY=0;entryDx=0;entryDy=0;align=center;verticalAlign=middle;fontFamily=Helvetica;fontSize=11;fontColor=default;labelBackgroundColor=default;endArrow=none;endFill=0;strokeWidth=1;fontStyle=1" parent="1" source="6S9Bv0-yqiVQl9u7fNV4-16" target="6S9Bv0-yqiVQl9u7fNV4-70" edge="1">
          <mxGeometry relative="1" as="geometry" />
        </mxCell>
        <mxCell id="6S9Bv0-yqiVQl9u7fNV4-261" style="edgeStyle=none;shape=connector;rounded=0;orthogonalLoop=1;jettySize=auto;html=1;exitX=0;exitY=1;exitDx=0;exitDy=0;entryX=0.5;entryY=0;entryDx=0;entryDy=0;align=center;verticalAlign=middle;fontFamily=Helvetica;fontSize=11;fontColor=default;labelBackgroundColor=default;endArrow=none;endFill=0;strokeWidth=1;fontStyle=1" parent="1" source="6S9Bv0-yqiVQl9u7fNV4-16" target="6S9Bv0-yqiVQl9u7fNV4-68" edge="1">
          <mxGeometry relative="1" as="geometry" />
        </mxCell>
        <mxCell id="6S9Bv0-yqiVQl9u7fNV4-262" style="edgeStyle=none;shape=connector;rounded=0;orthogonalLoop=1;jettySize=auto;html=1;exitX=1;exitY=0;exitDx=0;exitDy=0;entryX=0.5;entryY=1;entryDx=0;entryDy=0;align=center;verticalAlign=middle;fontFamily=Helvetica;fontSize=11;fontColor=default;labelBackgroundColor=default;endArrow=none;endFill=0;strokeWidth=1;fontStyle=1" parent="1" source="6S9Bv0-yqiVQl9u7fNV4-16" target="6S9Bv0-yqiVQl9u7fNV4-67" edge="1">
          <mxGeometry relative="1" as="geometry" />
        </mxCell>
        <mxCell id="6S9Bv0-yqiVQl9u7fNV4-16" value="&lt;font style=&quot;font-size: 19px;&quot;&gt;Motherboard&lt;/font&gt;" style="rounded=0;whiteSpace=wrap;html=1;strokeWidth=1;fontStyle=1" parent="1" vertex="1">
          <mxGeometry x="297" y="-8" width="135" height="60" as="geometry" />
        </mxCell>
        <mxCell id="6S9Bv0-yqiVQl9u7fNV4-169" style="edgeStyle=none;rounded=0;orthogonalLoop=1;jettySize=auto;html=1;exitX=1;exitY=0.5;exitDx=0;exitDy=0;entryX=0;entryY=0.5;entryDx=0;entryDy=0;endArrow=none;endFill=0;strokeWidth=1;fontStyle=1" parent="1" source="6S9Bv0-yqiVQl9u7fNV4-18" target="6S9Bv0-yqiVQl9u7fNV4-294" edge="1">
          <mxGeometry relative="1" as="geometry">
            <mxPoint x="691.5" y="693" as="targetPoint" />
          </mxGeometry>
        </mxCell>
        <mxCell id="6S9Bv0-yqiVQl9u7fNV4-243" style="edgeStyle=none;shape=connector;rounded=0;orthogonalLoop=1;jettySize=auto;html=1;exitX=1;exitY=0;exitDx=0;exitDy=0;entryX=0.5;entryY=1;entryDx=0;entryDy=0;align=center;verticalAlign=middle;fontFamily=Helvetica;fontSize=11;fontColor=default;labelBackgroundColor=default;endArrow=none;endFill=0;strokeWidth=1;fontStyle=1" parent="1" source="6S9Bv0-yqiVQl9u7fNV4-18" target="6S9Bv0-yqiVQl9u7fNV4-77" edge="1">
          <mxGeometry relative="1" as="geometry" />
        </mxCell>
        <mxCell id="6S9Bv0-yqiVQl9u7fNV4-244" style="edgeStyle=none;shape=connector;rounded=0;orthogonalLoop=1;jettySize=auto;html=1;exitX=1;exitY=1;exitDx=0;exitDy=0;entryX=0.5;entryY=0;entryDx=0;entryDy=0;align=center;verticalAlign=middle;fontFamily=Helvetica;fontSize=11;fontColor=default;labelBackgroundColor=default;endArrow=none;endFill=0;strokeWidth=1;fontStyle=1" parent="1" source="6S9Bv0-yqiVQl9u7fNV4-18" target="6S9Bv0-yqiVQl9u7fNV4-79" edge="1">
          <mxGeometry relative="1" as="geometry" />
        </mxCell>
        <mxCell id="6S9Bv0-yqiVQl9u7fNV4-245" style="edgeStyle=none;shape=connector;rounded=0;orthogonalLoop=1;jettySize=auto;html=1;exitX=0;exitY=1;exitDx=0;exitDy=0;entryX=0.5;entryY=0;entryDx=0;entryDy=0;align=center;verticalAlign=middle;fontFamily=Helvetica;fontSize=11;fontColor=default;labelBackgroundColor=default;endArrow=none;endFill=0;strokeWidth=1;fontStyle=1" parent="1" source="6S9Bv0-yqiVQl9u7fNV4-18" target="6S9Bv0-yqiVQl9u7fNV4-78" edge="1">
          <mxGeometry relative="1" as="geometry" />
        </mxCell>
        <mxCell id="6S9Bv0-yqiVQl9u7fNV4-247" style="edgeStyle=none;shape=connector;rounded=0;orthogonalLoop=1;jettySize=auto;html=1;exitX=0;exitY=0;exitDx=0;exitDy=0;entryX=0.5;entryY=1;entryDx=0;entryDy=0;align=center;verticalAlign=middle;fontFamily=Helvetica;fontSize=11;fontColor=default;labelBackgroundColor=default;endArrow=none;endFill=0;strokeWidth=1;fontStyle=1" parent="1" source="6S9Bv0-yqiVQl9u7fNV4-18" target="6S9Bv0-yqiVQl9u7fNV4-73" edge="1">
          <mxGeometry relative="1" as="geometry" />
        </mxCell>
        <mxCell id="6S9Bv0-yqiVQl9u7fNV4-248" style="edgeStyle=none;shape=connector;rounded=0;orthogonalLoop=1;jettySize=auto;html=1;exitX=0.25;exitY=0;exitDx=0;exitDy=0;entryX=0.5;entryY=1;entryDx=0;entryDy=0;align=center;verticalAlign=middle;fontFamily=Helvetica;fontSize=11;fontColor=default;labelBackgroundColor=default;endArrow=none;endFill=0;strokeWidth=1;fontStyle=1" parent="1" source="6S9Bv0-yqiVQl9u7fNV4-18" target="6S9Bv0-yqiVQl9u7fNV4-74" edge="1">
          <mxGeometry relative="1" as="geometry" />
        </mxCell>
        <mxCell id="6S9Bv0-yqiVQl9u7fNV4-249" style="edgeStyle=none;shape=connector;rounded=0;orthogonalLoop=1;jettySize=auto;html=1;exitX=0.75;exitY=0;exitDx=0;exitDy=0;entryX=0.5;entryY=1;entryDx=0;entryDy=0;align=center;verticalAlign=middle;fontFamily=Helvetica;fontSize=11;fontColor=default;labelBackgroundColor=default;endArrow=none;endFill=0;strokeWidth=1;fontStyle=1" parent="1" source="6S9Bv0-yqiVQl9u7fNV4-18" target="6S9Bv0-yqiVQl9u7fNV4-75" edge="1">
          <mxGeometry relative="1" as="geometry" />
        </mxCell>
        <mxCell id="6S9Bv0-yqiVQl9u7fNV4-18" value="&lt;font style=&quot;font-size: 20px;&quot;&gt;PSU&lt;/font&gt;" style="rounded=0;whiteSpace=wrap;html=1;strokeWidth=1;fontStyle=1" parent="1" vertex="1">
          <mxGeometry x="297" y="661.5" width="135" height="60" as="geometry" />
        </mxCell>
        <mxCell id="6S9Bv0-yqiVQl9u7fNV4-164" style="edgeStyle=none;rounded=0;orthogonalLoop=1;jettySize=auto;html=1;exitX=1;exitY=0.5;exitDx=0;exitDy=0;endArrow=none;endFill=0;strokeWidth=1;fontStyle=1" parent="1" source="6S9Bv0-yqiVQl9u7fNV4-284" target="6S9Bv0-yqiVQl9u7fNV4-16" edge="1">
          <mxGeometry relative="1" as="geometry">
            <mxPoint x="75" y="22" as="sourcePoint" />
          </mxGeometry>
        </mxCell>
        <mxCell id="6S9Bv0-yqiVQl9u7fNV4-167" style="edgeStyle=none;rounded=0;orthogonalLoop=1;jettySize=auto;html=1;exitX=0;exitY=0.5;exitDx=0;exitDy=0;entryX=1;entryY=0;entryDx=0;entryDy=0;endArrow=none;endFill=0;strokeWidth=1;fontStyle=1" parent="1" source="6S9Bv0-yqiVQl9u7fNV4-285" target="6S9Bv0-yqiVQl9u7fNV4-14" edge="1">
          <mxGeometry relative="1" as="geometry">
            <mxPoint x="-51" y="31" as="sourcePoint" />
          </mxGeometry>
        </mxCell>
        <mxCell id="6S9Bv0-yqiVQl9u7fNV4-168" style="edgeStyle=none;rounded=0;orthogonalLoop=1;jettySize=auto;html=1;exitX=1;exitY=0.5;exitDx=0;exitDy=0;entryX=0;entryY=0.5;entryDx=0;entryDy=0;endArrow=none;endFill=0;strokeWidth=1;fontStyle=1" parent="1" source="6S9Bv0-yqiVQl9u7fNV4-287" target="6S9Bv0-yqiVQl9u7fNV4-18" edge="1">
          <mxGeometry relative="1" as="geometry">
            <mxPoint x="50.5" y="693" as="sourcePoint" />
          </mxGeometry>
        </mxCell>
        <mxCell id="6S9Bv0-yqiVQl9u7fNV4-177" style="edgeStyle=none;shape=connector;rounded=0;orthogonalLoop=1;jettySize=auto;html=1;exitX=0;exitY=0.5;exitDx=0;exitDy=0;align=center;verticalAlign=middle;fontFamily=Helvetica;fontSize=11;fontColor=default;labelBackgroundColor=default;endArrow=none;endFill=0;strokeWidth=1;fontStyle=1;entryX=0.5;entryY=0;entryDx=0;entryDy=0;" parent="1" source="6S9Bv0-yqiVQl9u7fNV4-286" target="6S9Bv0-yqiVQl9u7fNV4-14" edge="1">
          <mxGeometry relative="1" as="geometry">
            <mxPoint x="-51" y="304" as="sourcePoint" />
            <mxPoint x="-630" y="600" as="targetPoint" />
          </mxGeometry>
        </mxCell>
        <mxCell id="6S9Bv0-yqiVQl9u7fNV4-179" style="edgeStyle=none;shape=connector;rounded=0;orthogonalLoop=1;jettySize=auto;html=1;exitX=0;exitY=0.5;exitDx=0;exitDy=0;entryX=1;entryY=0.75;entryDx=0;entryDy=0;align=center;verticalAlign=middle;fontFamily=Helvetica;fontSize=11;fontColor=default;labelBackgroundColor=default;endArrow=none;endFill=0;strokeWidth=1;fontStyle=1" parent="1" source="6S9Bv0-yqiVQl9u7fNV4-288" target="6S9Bv0-yqiVQl9u7fNV4-14" edge="1">
          <mxGeometry relative="1" as="geometry">
            <mxPoint x="-51" y="861" as="sourcePoint" />
          </mxGeometry>
        </mxCell>
        <mxCell id="6S9Bv0-yqiVQl9u7fNV4-187" style="edgeStyle=none;shape=connector;rounded=0;orthogonalLoop=1;jettySize=auto;html=1;exitX=1;exitY=0.5;exitDx=0;exitDy=0;entryX=0;entryY=0.5;entryDx=0;entryDy=0;align=center;verticalAlign=middle;fontFamily=Helvetica;fontSize=11;fontColor=default;labelBackgroundColor=default;endArrow=none;endFill=0;strokeWidth=1;fontStyle=1" parent="1" source="6S9Bv0-yqiVQl9u7fNV4-288" target="6S9Bv0-yqiVQl9u7fNV4-103" edge="1">
          <mxGeometry relative="1" as="geometry">
            <mxPoint x="68.5" y="1098.5" as="sourcePoint" />
          </mxGeometry>
        </mxCell>
        <mxCell id="6S9Bv0-yqiVQl9u7fNV4-178" style="edgeStyle=none;shape=connector;rounded=0;orthogonalLoop=1;jettySize=auto;html=1;exitX=0;exitY=0.5;exitDx=0;exitDy=0;entryX=1;entryY=0.5;entryDx=0;entryDy=0;align=center;verticalAlign=middle;fontFamily=Helvetica;fontSize=11;fontColor=default;labelBackgroundColor=default;endArrow=none;endFill=0;strokeWidth=1;fontStyle=1" parent="1" source="6S9Bv0-yqiVQl9u7fNV4-287" target="6S9Bv0-yqiVQl9u7fNV4-14" edge="1">
          <mxGeometry relative="1" as="geometry">
            <mxPoint x="-51" y="588" as="sourcePoint" />
          </mxGeometry>
        </mxCell>
        <mxCell id="6S9Bv0-yqiVQl9u7fNV4-185" style="edgeStyle=none;shape=connector;rounded=0;orthogonalLoop=1;jettySize=auto;html=1;exitX=1;exitY=0.5;exitDx=0;exitDy=0;entryX=0;entryY=0.5;entryDx=0;entryDy=0;align=center;verticalAlign=middle;fontFamily=Helvetica;fontSize=11;fontColor=default;labelBackgroundColor=default;endArrow=none;endFill=0;strokeWidth=1;fontStyle=1" parent="1" source="6S9Bv0-yqiVQl9u7fNV4-285" target="6S9Bv0-yqiVQl9u7fNV4-90" edge="1">
          <mxGeometry relative="1" as="geometry">
            <mxPoint x="66.5" y="384" as="sourcePoint" />
          </mxGeometry>
        </mxCell>
        <mxCell id="6S9Bv0-yqiVQl9u7fNV4-182" style="edgeStyle=none;shape=connector;rounded=0;orthogonalLoop=1;jettySize=auto;html=1;exitX=1;exitY=0.5;exitDx=0;exitDy=0;align=center;verticalAlign=middle;fontFamily=Helvetica;fontSize=11;fontColor=default;labelBackgroundColor=default;endArrow=none;endFill=0;entryX=0;entryY=0.5;entryDx=0;entryDy=0;strokeWidth=1;fontStyle=1" parent="1" source="6S9Bv0-yqiVQl9u7fNV4-291" target="6S9Bv0-yqiVQl9u7fNV4-14" edge="1">
          <mxGeometry relative="1" as="geometry">
            <mxPoint x="-665" y="709" as="targetPoint" />
            <mxPoint x="-51" y="1661" as="sourcePoint" />
          </mxGeometry>
        </mxCell>
        <mxCell id="6S9Bv0-yqiVQl9u7fNV4-193" style="edgeStyle=none;shape=connector;rounded=0;orthogonalLoop=1;jettySize=auto;html=1;exitX=0;exitY=0.5;exitDx=0;exitDy=0;entryX=1;entryY=0.5;entryDx=0;entryDy=0;align=center;verticalAlign=middle;fontFamily=Helvetica;fontSize=11;fontColor=default;labelBackgroundColor=default;endArrow=none;endFill=0;strokeWidth=1;fontStyle=1" parent="1" source="6S9Bv0-yqiVQl9u7fNV4-291" target="6S9Bv0-yqiVQl9u7fNV4-139" edge="1">
          <mxGeometry relative="1" as="geometry">
            <mxPoint x="19" y="1638" as="sourcePoint" />
          </mxGeometry>
        </mxCell>
        <mxCell id="6S9Bv0-yqiVQl9u7fNV4-61" value="name" style="ellipse;whiteSpace=wrap;html=1;strokeWidth=1;fontStyle=1" parent="1" vertex="1">
          <mxGeometry x="234.5" y="-110" width="125" height="50" as="geometry" />
        </mxCell>
        <mxCell id="6S9Bv0-yqiVQl9u7fNV4-63" value="&lt;u&gt;ID&lt;/u&gt;" style="ellipse;whiteSpace=wrap;html=1;strokeWidth=1;fontStyle=1" parent="1" vertex="1">
          <mxGeometry x="97.5" y="-110" width="125" height="50" as="geometry" />
        </mxCell>
        <mxCell id="6S9Bv0-yqiVQl9u7fNV4-66" value="brand_id(FK)" style="ellipse;whiteSpace=wrap;html=1;strokeWidth=1;fontStyle=1" parent="1" vertex="1">
          <mxGeometry x="370.5" y="-110" width="125" height="50" as="geometry" />
        </mxCell>
        <mxCell id="6S9Bv0-yqiVQl9u7fNV4-67" value="socket_id(FK)" style="ellipse;whiteSpace=wrap;html=1;strokeWidth=1;fontStyle=1" parent="1" vertex="1">
          <mxGeometry x="507.5" y="-110" width="125" height="50" as="geometry" />
        </mxCell>
        <mxCell id="6S9Bv0-yqiVQl9u7fNV4-68" value="gpu_slots" style="ellipse;whiteSpace=wrap;html=1;strokeWidth=1;fontStyle=1" parent="1" vertex="1">
          <mxGeometry x="28.249999999999993" y="87" width="125" height="50" as="geometry" />
        </mxCell>
        <mxCell id="6S9Bv0-yqiVQl9u7fNV4-70" value="ram_slots" style="ellipse;whiteSpace=wrap;html=1;strokeWidth=1;fontStyle=1" parent="1" vertex="1">
          <mxGeometry x="160" y="87" width="125" height="50" as="geometry" />
        </mxCell>
        <mxCell id="6S9Bv0-yqiVQl9u7fNV4-71" value="sata_slots" style="ellipse;whiteSpace=wrap;html=1;strokeWidth=1;fontStyle=1" parent="1" vertex="1">
          <mxGeometry x="443.5" y="87" width="125" height="50" as="geometry" />
        </mxCell>
        <mxCell id="6S9Bv0-yqiVQl9u7fNV4-72" value="price" style="ellipse;whiteSpace=wrap;html=1;strokeWidth=1;fontStyle=1;container=0;" parent="1" vertex="1">
          <mxGeometry x="580.5" y="87" width="125" height="50" as="geometry" />
        </mxCell>
        <mxCell id="6S9Bv0-yqiVQl9u7fNV4-73" value="&lt;u&gt;ID&lt;/u&gt;" style="ellipse;whiteSpace=wrap;html=1;strokeWidth=1;fontStyle=1" parent="1" vertex="1">
          <mxGeometry x="105.5" y="570" width="125" height="50" as="geometry" />
        </mxCell>
        <mxCell id="6S9Bv0-yqiVQl9u7fNV4-74" value="name" style="ellipse;whiteSpace=wrap;html=1;strokeWidth=1;fontStyle=1" parent="1" vertex="1">
          <mxGeometry x="237.5" y="570" width="125" height="50" as="geometry" />
        </mxCell>
        <mxCell id="6S9Bv0-yqiVQl9u7fNV4-75" value="efficiency_id(FK)" style="ellipse;whiteSpace=wrap;html=1;strokeWidth=1;fontStyle=1" parent="1" vertex="1">
          <mxGeometry x="370.5" y="570" width="125" height="50" as="geometry" />
        </mxCell>
        <mxCell id="6S9Bv0-yqiVQl9u7fNV4-77" value="brand_id(FK)" style="ellipse;whiteSpace=wrap;html=1;strokeWidth=1;fontStyle=1" parent="1" vertex="1">
          <mxGeometry x="503.5" y="570" width="125" height="50" as="geometry" />
        </mxCell>
        <mxCell id="6S9Bv0-yqiVQl9u7fNV4-78" value="performance" style="ellipse;whiteSpace=wrap;html=1;strokeWidth=1;fontStyle=1" parent="1" vertex="1">
          <mxGeometry x="165.25" y="757.5" width="125" height="50" as="geometry" />
        </mxCell>
        <mxCell id="6S9Bv0-yqiVQl9u7fNV4-79" value="price" style="ellipse;whiteSpace=wrap;html=1;strokeWidth=1;fontStyle=1" parent="1" vertex="1">
          <mxGeometry x="437" y="757.5" width="125" height="50" as="geometry" />
        </mxCell>
        <mxCell id="6S9Bv0-yqiVQl9u7fNV4-236" style="edgeStyle=none;shape=connector;rounded=0;orthogonalLoop=1;jettySize=auto;html=1;exitX=0.25;exitY=1;exitDx=0;exitDy=0;entryX=0.5;entryY=0;entryDx=0;entryDy=0;align=center;verticalAlign=middle;fontFamily=Helvetica;fontSize=11;fontColor=default;labelBackgroundColor=default;endArrow=none;endFill=0;strokeWidth=1;fontStyle=1" parent="1" source="6S9Bv0-yqiVQl9u7fNV4-82" target="6S9Bv0-yqiVQl9u7fNV4-87" edge="1">
          <mxGeometry relative="1" as="geometry" />
        </mxCell>
        <mxCell id="6S9Bv0-yqiVQl9u7fNV4-237" style="edgeStyle=none;shape=connector;rounded=0;orthogonalLoop=1;jettySize=auto;html=1;exitX=0.75;exitY=1;exitDx=0;exitDy=0;entryX=0.5;entryY=0;entryDx=0;entryDy=0;align=center;verticalAlign=middle;fontFamily=Helvetica;fontSize=11;fontColor=default;labelBackgroundColor=default;endArrow=none;endFill=0;strokeWidth=1;fontStyle=1" parent="1" source="6S9Bv0-yqiVQl9u7fNV4-82" target="6S9Bv0-yqiVQl9u7fNV4-88" edge="1">
          <mxGeometry relative="1" as="geometry" />
        </mxCell>
        <mxCell id="6S9Bv0-yqiVQl9u7fNV4-238" style="edgeStyle=none;shape=connector;rounded=0;orthogonalLoop=1;jettySize=auto;html=1;exitX=1;exitY=1;exitDx=0;exitDy=0;entryX=0.5;entryY=0;entryDx=0;entryDy=0;align=center;verticalAlign=middle;fontFamily=Helvetica;fontSize=11;fontColor=default;labelBackgroundColor=default;endArrow=none;endFill=0;strokeWidth=1;fontStyle=1" parent="1" source="6S9Bv0-yqiVQl9u7fNV4-82" target="6S9Bv0-yqiVQl9u7fNV4-89" edge="1">
          <mxGeometry relative="1" as="geometry" />
        </mxCell>
        <mxCell id="6S9Bv0-yqiVQl9u7fNV4-239" style="edgeStyle=none;shape=connector;rounded=0;orthogonalLoop=1;jettySize=auto;html=1;exitX=1;exitY=0;exitDx=0;exitDy=0;entryX=0.5;entryY=1;entryDx=0;entryDy=0;align=center;verticalAlign=middle;fontFamily=Helvetica;fontSize=11;fontColor=default;labelBackgroundColor=default;endArrow=none;endFill=0;strokeWidth=1;fontStyle=1" parent="1" source="6S9Bv0-yqiVQl9u7fNV4-82" target="6S9Bv0-yqiVQl9u7fNV4-86" edge="1">
          <mxGeometry relative="1" as="geometry" />
        </mxCell>
        <mxCell id="6S9Bv0-yqiVQl9u7fNV4-240" style="edgeStyle=none;shape=connector;rounded=0;orthogonalLoop=1;jettySize=auto;html=1;exitX=0;exitY=0;exitDx=0;exitDy=0;entryX=0.5;entryY=1;entryDx=0;entryDy=0;align=center;verticalAlign=middle;fontFamily=Helvetica;fontSize=11;fontColor=default;labelBackgroundColor=default;endArrow=none;endFill=0;strokeWidth=1;fontStyle=1" parent="1" source="6S9Bv0-yqiVQl9u7fNV4-82" target="6S9Bv0-yqiVQl9u7fNV4-83" edge="1">
          <mxGeometry relative="1" as="geometry" />
        </mxCell>
        <mxCell id="6S9Bv0-yqiVQl9u7fNV4-241" style="edgeStyle=none;shape=connector;rounded=0;orthogonalLoop=1;jettySize=auto;html=1;exitX=0;exitY=1;exitDx=0;exitDy=0;entryX=0.5;entryY=0;entryDx=0;entryDy=0;align=center;verticalAlign=middle;fontFamily=Helvetica;fontSize=11;fontColor=default;labelBackgroundColor=default;endArrow=none;endFill=0;strokeWidth=1;fontStyle=1" parent="1" source="6S9Bv0-yqiVQl9u7fNV4-82" target="6S9Bv0-yqiVQl9u7fNV4-84" edge="1">
          <mxGeometry relative="1" as="geometry" />
        </mxCell>
        <mxCell id="6S9Bv0-yqiVQl9u7fNV4-82" value="&lt;font style=&quot;font-size: 20px;&quot;&gt;Casing&lt;/font&gt;" style="rounded=0;whiteSpace=wrap;html=1;strokeWidth=1;fontStyle=1" parent="1" vertex="1">
          <mxGeometry x="297" y="-352" width="135" height="60" as="geometry" />
        </mxCell>
        <mxCell id="6S9Bv0-yqiVQl9u7fNV4-83" value="&lt;u&gt;ID&lt;/u&gt;" style="ellipse;whiteSpace=wrap;html=1;strokeWidth=1;fontStyle=1" parent="1" vertex="1">
          <mxGeometry x="160" y="-440" width="125" height="50" as="geometry" />
        </mxCell>
        <mxCell id="6S9Bv0-yqiVQl9u7fNV4-84" value="name" style="ellipse;whiteSpace=wrap;html=1;strokeWidth=1;fontStyle=1" parent="1" vertex="1">
          <mxGeometry x="102.13" y="-251" width="125" height="50" as="geometry" />
        </mxCell>
        <mxCell id="6S9Bv0-yqiVQl9u7fNV4-86" value="brand_id(FK)" style="ellipse;whiteSpace=wrap;html=1;strokeWidth=1;fontStyle=1" parent="1" vertex="1">
          <mxGeometry x="450" y="-440" width="125" height="50" as="geometry" />
        </mxCell>
        <mxCell id="6S9Bv0-yqiVQl9u7fNV4-87" value="size_id(FK)" style="ellipse;whiteSpace=wrap;html=1;strokeWidth=1;fontStyle=1" parent="1" vertex="1">
          <mxGeometry x="233.88" y="-251" width="125" height="50" as="geometry" />
        </mxCell>
        <mxCell id="6S9Bv0-yqiVQl9u7fNV4-88" value="isIlluminated" style="ellipse;whiteSpace=wrap;html=1;strokeWidth=1;fontStyle=1" parent="1" vertex="1">
          <mxGeometry x="365.88" y="-251" width="125" height="50" as="geometry" />
        </mxCell>
        <mxCell id="6S9Bv0-yqiVQl9u7fNV4-89" value="price" style="ellipse;whiteSpace=wrap;html=1;strokeWidth=1;fontStyle=1" parent="1" vertex="1">
          <mxGeometry x="497.63" y="-251" width="125" height="50" as="geometry" />
        </mxCell>
        <mxCell id="6S9Bv0-yqiVQl9u7fNV4-186" style="edgeStyle=none;shape=connector;rounded=0;orthogonalLoop=1;jettySize=auto;html=1;exitX=1;exitY=0.5;exitDx=0;exitDy=0;entryX=0;entryY=0.5;entryDx=0;entryDy=0;align=center;verticalAlign=middle;fontFamily=Helvetica;fontSize=11;fontColor=default;labelBackgroundColor=default;endArrow=none;endFill=0;strokeWidth=1;fontStyle=1" parent="1" source="6S9Bv0-yqiVQl9u7fNV4-90" target="6S9Bv0-yqiVQl9u7fNV4-293" edge="1">
          <mxGeometry relative="1" as="geometry">
            <mxPoint x="707.5" y="384" as="targetPoint" />
          </mxGeometry>
        </mxCell>
        <mxCell id="6S9Bv0-yqiVQl9u7fNV4-224" style="edgeStyle=none;shape=connector;rounded=0;orthogonalLoop=1;jettySize=auto;html=1;exitX=1;exitY=1;exitDx=0;exitDy=0;entryX=0.5;entryY=0;entryDx=0;entryDy=0;align=center;verticalAlign=middle;fontFamily=Helvetica;fontSize=11;fontColor=default;labelBackgroundColor=default;endArrow=none;endFill=0;strokeWidth=1;fontStyle=1" parent="1" source="6S9Bv0-yqiVQl9u7fNV4-90" target="6S9Bv0-yqiVQl9u7fNV4-101" edge="1">
          <mxGeometry relative="1" as="geometry" />
        </mxCell>
        <mxCell id="6S9Bv0-yqiVQl9u7fNV4-228" style="edgeStyle=none;shape=connector;rounded=0;orthogonalLoop=1;jettySize=auto;html=1;exitX=0.75;exitY=1;exitDx=0;exitDy=0;entryX=0.5;entryY=0;entryDx=0;entryDy=0;align=center;verticalAlign=middle;fontFamily=Helvetica;fontSize=11;fontColor=default;labelBackgroundColor=default;endArrow=none;endFill=0;strokeWidth=1;fontStyle=1" parent="1" source="6S9Bv0-yqiVQl9u7fNV4-90" target="6S9Bv0-yqiVQl9u7fNV4-99" edge="1">
          <mxGeometry relative="1" as="geometry" />
        </mxCell>
        <mxCell id="6S9Bv0-yqiVQl9u7fNV4-229" style="edgeStyle=none;shape=connector;rounded=0;orthogonalLoop=1;jettySize=auto;html=1;exitX=0;exitY=0;exitDx=0;exitDy=0;entryX=0.5;entryY=1;entryDx=0;entryDy=0;align=center;verticalAlign=middle;fontFamily=Helvetica;fontSize=11;fontColor=default;labelBackgroundColor=default;endArrow=none;endFill=0;strokeWidth=1;fontStyle=1" parent="1" source="6S9Bv0-yqiVQl9u7fNV4-90" target="6S9Bv0-yqiVQl9u7fNV4-93" edge="1">
          <mxGeometry relative="1" as="geometry" />
        </mxCell>
        <mxCell id="6S9Bv0-yqiVQl9u7fNV4-230" style="edgeStyle=none;shape=connector;rounded=0;orthogonalLoop=1;jettySize=auto;html=1;exitX=0.25;exitY=0;exitDx=0;exitDy=0;entryX=0.5;entryY=1;entryDx=0;entryDy=0;align=center;verticalAlign=middle;fontFamily=Helvetica;fontSize=11;fontColor=default;labelBackgroundColor=default;endArrow=none;endFill=0;strokeWidth=1;fontStyle=1" parent="1" source="6S9Bv0-yqiVQl9u7fNV4-90" target="6S9Bv0-yqiVQl9u7fNV4-91" edge="1">
          <mxGeometry relative="1" as="geometry" />
        </mxCell>
        <mxCell id="6S9Bv0-yqiVQl9u7fNV4-231" style="edgeStyle=none;shape=connector;rounded=0;orthogonalLoop=1;jettySize=auto;html=1;exitX=0.75;exitY=0;exitDx=0;exitDy=0;entryX=0.5;entryY=1;entryDx=0;entryDy=0;align=center;verticalAlign=middle;fontFamily=Helvetica;fontSize=11;fontColor=default;labelBackgroundColor=default;endArrow=none;endFill=0;strokeWidth=1;fontStyle=1" parent="1" source="6S9Bv0-yqiVQl9u7fNV4-90" target="6S9Bv0-yqiVQl9u7fNV4-92" edge="1">
          <mxGeometry relative="1" as="geometry" />
        </mxCell>
        <mxCell id="6S9Bv0-yqiVQl9u7fNV4-232" style="edgeStyle=none;shape=connector;rounded=0;orthogonalLoop=1;jettySize=auto;html=1;exitX=1;exitY=0;exitDx=0;exitDy=0;entryX=0.5;entryY=1;entryDx=0;entryDy=0;align=center;verticalAlign=middle;fontFamily=Helvetica;fontSize=11;fontColor=default;labelBackgroundColor=default;endArrow=none;endFill=0;strokeWidth=1;fontStyle=1" parent="1" source="6S9Bv0-yqiVQl9u7fNV4-90" target="6S9Bv0-yqiVQl9u7fNV4-94" edge="1">
          <mxGeometry relative="1" as="geometry" />
        </mxCell>
        <mxCell id="6S9Bv0-yqiVQl9u7fNV4-233" style="edgeStyle=none;shape=connector;rounded=0;orthogonalLoop=1;jettySize=auto;html=1;entryX=0.5;entryY=0;entryDx=0;entryDy=0;align=center;verticalAlign=middle;fontFamily=Helvetica;fontSize=11;fontColor=default;labelBackgroundColor=default;endArrow=none;endFill=0;strokeWidth=1;exitX=0;exitY=1;exitDx=0;exitDy=0;fontStyle=1" parent="1" source="6S9Bv0-yqiVQl9u7fNV4-90" target="6S9Bv0-yqiVQl9u7fNV4-95" edge="1">
          <mxGeometry relative="1" as="geometry">
            <mxPoint x="504.5" y="305" as="sourcePoint" />
          </mxGeometry>
        </mxCell>
        <mxCell id="6S9Bv0-yqiVQl9u7fNV4-235" style="edgeStyle=none;shape=connector;rounded=0;orthogonalLoop=1;jettySize=auto;html=1;exitX=0.25;exitY=1;exitDx=0;exitDy=0;entryX=0.5;entryY=0;entryDx=0;entryDy=0;align=center;verticalAlign=middle;fontFamily=Helvetica;fontSize=11;fontColor=default;labelBackgroundColor=default;endArrow=none;endFill=0;strokeWidth=1;fontStyle=1" parent="1" source="6S9Bv0-yqiVQl9u7fNV4-90" target="6S9Bv0-yqiVQl9u7fNV4-96" edge="1">
          <mxGeometry relative="1" as="geometry" />
        </mxCell>
        <mxCell id="6S9Bv0-yqiVQl9u7fNV4-90" value="&lt;font style=&quot;font-size: 20px;&quot;&gt;CPU&lt;/font&gt;" style="rounded=0;whiteSpace=wrap;html=1;strokeWidth=1;fontStyle=1" parent="1" vertex="1">
          <mxGeometry x="297" y="352" width="135" height="60" as="geometry" />
        </mxCell>
        <mxCell id="6S9Bv0-yqiVQl9u7fNV4-91" value="name" style="ellipse;whiteSpace=wrap;html=1;strokeWidth=1;fontStyle=1" parent="1" vertex="1">
          <mxGeometry x="165.25" y="258" width="125" height="50" as="geometry" />
        </mxCell>
        <mxCell id="6S9Bv0-yqiVQl9u7fNV4-92" value="performance" style="ellipse;whiteSpace=wrap;html=1;strokeWidth=1;fontStyle=1" parent="1" vertex="1">
          <mxGeometry x="443.5" y="258" width="125" height="50" as="geometry" />
        </mxCell>
        <mxCell id="6S9Bv0-yqiVQl9u7fNV4-93" value="&lt;u&gt;ID&lt;/u&gt;" style="ellipse;whiteSpace=wrap;html=1;strokeWidth=1;fontStyle=1" parent="1" vertex="1">
          <mxGeometry x="28.25" y="258" width="125" height="50" as="geometry" />
        </mxCell>
        <mxCell id="6S9Bv0-yqiVQl9u7fNV4-94" value="brand_id(FK)" style="ellipse;whiteSpace=wrap;html=1;strokeWidth=1;fontStyle=1" parent="1" vertex="1">
          <mxGeometry x="577.5" y="258" width="125" height="50" as="geometry" />
        </mxCell>
        <mxCell id="6S9Bv0-yqiVQl9u7fNV4-95" value="socket_id(FK)" style="ellipse;whiteSpace=wrap;html=1;strokeWidth=1;fontStyle=1" parent="1" vertex="1">
          <mxGeometry x="102" y="444" width="125" height="50" as="geometry" />
        </mxCell>
        <mxCell id="6S9Bv0-yqiVQl9u7fNV4-96" value="clock_rate" style="ellipse;whiteSpace=wrap;html=1;strokeWidth=1;fontStyle=1" parent="1" vertex="1">
          <mxGeometry x="239" y="444" width="125" height="50" as="geometry" />
        </mxCell>
        <mxCell id="6S9Bv0-yqiVQl9u7fNV4-99" value="core" style="ellipse;whiteSpace=wrap;html=1;strokeWidth=1;fontStyle=1" parent="1" vertex="1">
          <mxGeometry x="375" y="444" width="125" height="50" as="geometry" />
        </mxCell>
        <mxCell id="6S9Bv0-yqiVQl9u7fNV4-101" value="price" style="ellipse;whiteSpace=wrap;html=1;strokeWidth=1;fontStyle=1" parent="1" vertex="1">
          <mxGeometry x="512" y="444" width="125" height="50" as="geometry" />
        </mxCell>
        <mxCell id="6S9Bv0-yqiVQl9u7fNV4-188" style="edgeStyle=none;shape=connector;rounded=0;orthogonalLoop=1;jettySize=auto;html=1;exitX=1;exitY=0.5;exitDx=0;exitDy=0;entryX=0;entryY=0.5;entryDx=0;entryDy=0;align=center;verticalAlign=middle;fontFamily=Helvetica;fontSize=11;fontColor=default;labelBackgroundColor=default;endArrow=none;endFill=0;strokeWidth=1;fontStyle=1" parent="1" source="6S9Bv0-yqiVQl9u7fNV4-103" target="6S9Bv0-yqiVQl9u7fNV4-295" edge="1">
          <mxGeometry relative="1" as="geometry">
            <mxPoint x="718.5" y="1098.5" as="targetPoint" />
          </mxGeometry>
        </mxCell>
        <mxCell id="6S9Bv0-yqiVQl9u7fNV4-216" style="edgeStyle=none;shape=connector;rounded=0;orthogonalLoop=1;jettySize=auto;html=1;exitX=1;exitY=1;exitDx=0;exitDy=0;entryX=0.5;entryY=0;entryDx=0;entryDy=0;align=center;verticalAlign=middle;fontFamily=Helvetica;fontSize=11;fontColor=default;labelBackgroundColor=default;endArrow=none;endFill=0;strokeWidth=1;fontStyle=1" parent="1" source="6S9Bv0-yqiVQl9u7fNV4-103" target="6S9Bv0-yqiVQl9u7fNV4-114" edge="1">
          <mxGeometry relative="1" as="geometry" />
        </mxCell>
        <mxCell id="6S9Bv0-yqiVQl9u7fNV4-218" style="edgeStyle=none;shape=connector;rounded=0;orthogonalLoop=1;jettySize=auto;html=1;exitX=0;exitY=0;exitDx=0;exitDy=0;entryX=0.5;entryY=1;entryDx=0;entryDy=0;align=center;verticalAlign=middle;fontFamily=Helvetica;fontSize=11;fontColor=default;labelBackgroundColor=default;endArrow=none;endFill=0;strokeWidth=1;fontStyle=1" parent="1" source="6S9Bv0-yqiVQl9u7fNV4-103" target="6S9Bv0-yqiVQl9u7fNV4-104" edge="1">
          <mxGeometry relative="1" as="geometry" />
        </mxCell>
        <mxCell id="6S9Bv0-yqiVQl9u7fNV4-219" style="edgeStyle=none;shape=connector;rounded=0;orthogonalLoop=1;jettySize=auto;html=1;exitX=0;exitY=1;exitDx=0;exitDy=0;align=center;verticalAlign=middle;fontFamily=Helvetica;fontSize=11;fontColor=default;labelBackgroundColor=default;endArrow=none;endFill=0;strokeWidth=1;entryX=0.5;entryY=0;entryDx=0;entryDy=0;fontStyle=1" parent="1" source="6S9Bv0-yqiVQl9u7fNV4-103" target="6S9Bv0-yqiVQl9u7fNV4-107" edge="1">
          <mxGeometry relative="1" as="geometry" />
        </mxCell>
        <mxCell id="6S9Bv0-yqiVQl9u7fNV4-220" style="edgeStyle=none;shape=connector;rounded=0;orthogonalLoop=1;jettySize=auto;html=1;exitX=1;exitY=0;exitDx=0;exitDy=0;entryX=0.5;entryY=1;entryDx=0;entryDy=0;align=center;verticalAlign=middle;fontFamily=Helvetica;fontSize=11;fontColor=default;labelBackgroundColor=default;endArrow=none;endFill=0;strokeWidth=1;fontStyle=1" parent="1" source="6S9Bv0-yqiVQl9u7fNV4-103" target="6S9Bv0-yqiVQl9u7fNV4-106" edge="1">
          <mxGeometry relative="1" as="geometry" />
        </mxCell>
        <mxCell id="6S9Bv0-yqiVQl9u7fNV4-221" style="edgeStyle=none;shape=connector;rounded=0;orthogonalLoop=1;jettySize=auto;html=1;exitX=0.5;exitY=0;exitDx=0;exitDy=0;entryX=0.5;entryY=1;entryDx=0;entryDy=0;align=center;verticalAlign=middle;fontFamily=Helvetica;fontSize=11;fontColor=default;labelBackgroundColor=default;endArrow=none;endFill=0;strokeWidth=1;fontStyle=1" parent="1" source="6S9Bv0-yqiVQl9u7fNV4-103" target="6S9Bv0-yqiVQl9u7fNV4-105" edge="1">
          <mxGeometry relative="1" as="geometry" />
        </mxCell>
        <mxCell id="6S9Bv0-yqiVQl9u7fNV4-222" style="edgeStyle=none;shape=connector;rounded=0;orthogonalLoop=1;jettySize=auto;html=1;exitX=0.5;exitY=1;exitDx=0;exitDy=0;entryX=0.5;entryY=0;entryDx=0;entryDy=0;align=center;verticalAlign=middle;fontFamily=Helvetica;fontSize=11;fontColor=default;labelBackgroundColor=default;endArrow=none;endFill=0;strokeWidth=1;fontStyle=1" parent="1" source="6S9Bv0-yqiVQl9u7fNV4-103" target="6S9Bv0-yqiVQl9u7fNV4-112" edge="1">
          <mxGeometry relative="1" as="geometry" />
        </mxCell>
        <mxCell id="6S9Bv0-yqiVQl9u7fNV4-103" value="&lt;font style=&quot;font-size: 20px;&quot;&gt;GPU&lt;/font&gt;" style="rounded=0;whiteSpace=wrap;html=1;strokeWidth=1;fontStyle=1" parent="1" vertex="1">
          <mxGeometry x="297" y="1071.5" width="135" height="60" as="geometry" />
        </mxCell>
        <mxCell id="6S9Bv0-yqiVQl9u7fNV4-104" value="&lt;u&gt;ID&lt;/u&gt;" style="ellipse;whiteSpace=wrap;html=1;strokeWidth=1;fontStyle=1" parent="1" vertex="1">
          <mxGeometry x="169.5" y="982.5" width="125" height="50" as="geometry" />
        </mxCell>
        <mxCell id="6S9Bv0-yqiVQl9u7fNV4-105" value="name" style="ellipse;whiteSpace=wrap;html=1;strokeWidth=1;fontStyle=1" parent="1" vertex="1">
          <mxGeometry x="302" y="982.5" width="125" height="50" as="geometry" />
        </mxCell>
        <mxCell id="6S9Bv0-yqiVQl9u7fNV4-106" value="performance" style="ellipse;whiteSpace=wrap;html=1;strokeWidth=1;fontStyle=1" parent="1" vertex="1">
          <mxGeometry x="434.5" y="982.5" width="125" height="50" as="geometry" />
        </mxCell>
        <mxCell id="6S9Bv0-yqiVQl9u7fNV4-107" value="brand_id(FK)" style="ellipse;whiteSpace=wrap;html=1;strokeWidth=1;fontStyle=1" parent="1" vertex="1">
          <mxGeometry x="167.88" y="1165.5" width="125" height="50" as="geometry" />
        </mxCell>
        <mxCell id="6S9Bv0-yqiVQl9u7fNV4-112" value="ram" style="ellipse;whiteSpace=wrap;html=1;strokeWidth=1;fontStyle=1" parent="1" vertex="1">
          <mxGeometry x="302" y="1165.5" width="125" height="50" as="geometry" />
        </mxCell>
        <mxCell id="6S9Bv0-yqiVQl9u7fNV4-114" value="price" style="ellipse;whiteSpace=wrap;html=1;strokeWidth=1;fontStyle=1" parent="1" vertex="1">
          <mxGeometry x="432.88" y="1165.5" width="125" height="50" as="geometry" />
        </mxCell>
        <mxCell id="6S9Bv0-yqiVQl9u7fNV4-190" style="edgeStyle=none;shape=connector;rounded=0;orthogonalLoop=1;jettySize=auto;html=1;exitX=1;exitY=0.5;exitDx=0;exitDy=0;entryX=0;entryY=0.5;entryDx=0;entryDy=0;align=center;verticalAlign=middle;fontFamily=Helvetica;fontSize=11;fontColor=default;labelBackgroundColor=default;endArrow=none;endFill=0;strokeWidth=1;fontStyle=1" parent="1" source="6S9Bv0-yqiVQl9u7fNV4-115" target="6S9Bv0-yqiVQl9u7fNV4-296" edge="1">
          <mxGeometry relative="1" as="geometry">
            <mxPoint x="718.5" y="1359.5" as="targetPoint" />
          </mxGeometry>
        </mxCell>
        <mxCell id="6S9Bv0-yqiVQl9u7fNV4-207" style="edgeStyle=none;shape=connector;rounded=0;orthogonalLoop=1;jettySize=auto;html=1;exitX=1;exitY=1;exitDx=0;exitDy=0;entryX=0.5;entryY=0;entryDx=0;entryDy=0;align=center;verticalAlign=middle;fontFamily=Helvetica;fontSize=11;fontColor=default;labelBackgroundColor=default;endArrow=none;endFill=0;strokeWidth=1;fontStyle=1" parent="1" source="6S9Bv0-yqiVQl9u7fNV4-115" target="6S9Bv0-yqiVQl9u7fNV4-123" edge="1">
          <mxGeometry relative="1" as="geometry" />
        </mxCell>
        <mxCell id="6S9Bv0-yqiVQl9u7fNV4-209" style="edgeStyle=none;shape=connector;rounded=0;orthogonalLoop=1;jettySize=auto;html=1;exitX=0;exitY=1;exitDx=0;exitDy=0;entryX=0.5;entryY=0;entryDx=0;entryDy=0;align=center;verticalAlign=middle;fontFamily=Helvetica;fontSize=11;fontColor=default;labelBackgroundColor=default;endArrow=none;endFill=0;strokeWidth=1;fontStyle=1" parent="1" source="6S9Bv0-yqiVQl9u7fNV4-115" target="6S9Bv0-yqiVQl9u7fNV4-121" edge="1">
          <mxGeometry relative="1" as="geometry" />
        </mxCell>
        <mxCell id="6S9Bv0-yqiVQl9u7fNV4-210" style="edgeStyle=none;shape=connector;rounded=0;orthogonalLoop=1;jettySize=auto;html=1;exitX=0.5;exitY=1;exitDx=0;exitDy=0;entryX=0.5;entryY=0;entryDx=0;entryDy=0;align=center;verticalAlign=middle;fontFamily=Helvetica;fontSize=11;fontColor=default;labelBackgroundColor=default;endArrow=none;endFill=0;strokeWidth=1;fontStyle=1" parent="1" source="6S9Bv0-yqiVQl9u7fNV4-115" target="6S9Bv0-yqiVQl9u7fNV4-122" edge="1">
          <mxGeometry relative="1" as="geometry" />
        </mxCell>
        <mxCell id="6S9Bv0-yqiVQl9u7fNV4-212" style="edgeStyle=none;shape=connector;rounded=0;orthogonalLoop=1;jettySize=auto;html=1;exitX=0.75;exitY=0;exitDx=0;exitDy=0;entryX=0.5;entryY=1;entryDx=0;entryDy=0;align=center;verticalAlign=middle;fontFamily=Helvetica;fontSize=11;fontColor=default;labelBackgroundColor=default;endArrow=none;endFill=0;strokeWidth=1;fontStyle=1" parent="1" source="6S9Bv0-yqiVQl9u7fNV4-115" target="6S9Bv0-yqiVQl9u7fNV4-125" edge="1">
          <mxGeometry relative="1" as="geometry" />
        </mxCell>
        <mxCell id="6S9Bv0-yqiVQl9u7fNV4-214" style="edgeStyle=none;shape=connector;rounded=0;orthogonalLoop=1;jettySize=auto;html=1;exitX=0;exitY=0;exitDx=0;exitDy=0;entryX=0.5;entryY=1;entryDx=0;entryDy=0;align=center;verticalAlign=middle;fontFamily=Helvetica;fontSize=11;fontColor=default;labelBackgroundColor=default;endArrow=none;endFill=0;strokeWidth=1;fontStyle=1" parent="1" source="6S9Bv0-yqiVQl9u7fNV4-115" target="6S9Bv0-yqiVQl9u7fNV4-126" edge="1">
          <mxGeometry relative="1" as="geometry" />
        </mxCell>
        <mxCell id="6S9Bv0-yqiVQl9u7fNV4-215" style="edgeStyle=none;shape=connector;rounded=0;orthogonalLoop=1;jettySize=auto;html=1;exitX=1;exitY=0;exitDx=0;exitDy=0;entryX=0.5;entryY=1;entryDx=0;entryDy=0;align=center;verticalAlign=middle;fontFamily=Helvetica;fontSize=11;fontColor=default;labelBackgroundColor=default;endArrow=none;endFill=0;strokeWidth=1;fontStyle=1" parent="1" source="6S9Bv0-yqiVQl9u7fNV4-115" target="6S9Bv0-yqiVQl9u7fNV4-127" edge="1">
          <mxGeometry relative="1" as="geometry" />
        </mxCell>
        <mxCell id="6S9Bv0-yqiVQl9u7fNV4-115" value="&lt;font style=&quot;font-size: 20px;&quot;&gt;Disk Drive&lt;/font&gt;" style="rounded=0;whiteSpace=wrap;html=1;strokeWidth=1;fontStyle=1" parent="1" vertex="1">
          <mxGeometry x="297" y="1329.5" width="135" height="60" as="geometry" />
        </mxCell>
        <mxCell id="6S9Bv0-yqiVQl9u7fNV4-121" value="write_speed" style="ellipse;whiteSpace=wrap;html=1;strokeWidth=1;fontStyle=1" parent="1" vertex="1">
          <mxGeometry x="169.5" y="1426.5" width="125" height="50" as="geometry" />
        </mxCell>
        <mxCell id="6S9Bv0-yqiVQl9u7fNV4-122" value="read_speed" style="ellipse;whiteSpace=wrap;html=1;strokeWidth=1;fontStyle=1" parent="1" vertex="1">
          <mxGeometry x="302" y="1426.5" width="125" height="50" as="geometry" />
        </mxCell>
        <mxCell id="6S9Bv0-yqiVQl9u7fNV4-123" value="price" style="ellipse;whiteSpace=wrap;html=1;strokeWidth=1;fontStyle=1" parent="1" vertex="1">
          <mxGeometry x="434.5" y="1426.5" width="125" height="50" as="geometry" />
        </mxCell>
        <mxCell id="6S9Bv0-yqiVQl9u7fNV4-124" value="name" style="ellipse;whiteSpace=wrap;html=1;strokeWidth=1;fontStyle=1" parent="1" vertex="1">
          <mxGeometry x="255.5" y="1246.5" width="125" height="50" as="geometry" />
        </mxCell>
        <mxCell id="6S9Bv0-yqiVQl9u7fNV4-125" value="brand_id(FK)" style="ellipse;whiteSpace=wrap;html=1;strokeWidth=1;fontStyle=1" parent="1" vertex="1">
          <mxGeometry x="391.5" y="1246.5" width="125" height="50" as="geometry" />
        </mxCell>
        <mxCell id="6S9Bv0-yqiVQl9u7fNV4-126" value="&lt;u&gt;ID&lt;/u&gt;" style="ellipse;whiteSpace=wrap;html=1;strokeWidth=1;fontStyle=1" parent="1" vertex="1">
          <mxGeometry x="118.5" y="1246.5" width="125" height="50" as="geometry" />
        </mxCell>
        <mxCell id="6S9Bv0-yqiVQl9u7fNV4-127" value="capacity" style="ellipse;whiteSpace=wrap;html=1;strokeWidth=1;fontStyle=1" parent="1" vertex="1">
          <mxGeometry x="528.5" y="1246.5" width="125" height="50" as="geometry" />
        </mxCell>
        <mxCell id="6S9Bv0-yqiVQl9u7fNV4-192" style="edgeStyle=none;shape=connector;rounded=0;orthogonalLoop=1;jettySize=auto;html=1;exitX=1;exitY=0.5;exitDx=0;exitDy=0;entryX=0;entryY=0.5;entryDx=0;entryDy=0;align=center;verticalAlign=middle;fontFamily=Helvetica;fontSize=11;fontColor=default;labelBackgroundColor=default;endArrow=none;endFill=0;strokeWidth=1;fontStyle=1" parent="1" source="Ul2NhaRGqpGKgxj8_X_V-7" target="6S9Bv0-yqiVQl9u7fNV4-297" edge="1">
          <mxGeometry relative="1" as="geometry">
            <mxPoint x="718.5" y="1628.5" as="targetPoint" />
          </mxGeometry>
        </mxCell>
        <mxCell id="6S9Bv0-yqiVQl9u7fNV4-202" style="edgeStyle=none;shape=connector;rounded=0;orthogonalLoop=1;jettySize=auto;html=1;exitX=0;exitY=0;exitDx=0;exitDy=0;entryX=0.5;entryY=1;entryDx=0;entryDy=0;align=center;verticalAlign=middle;fontFamily=Helvetica;fontSize=11;fontColor=default;labelBackgroundColor=default;endArrow=none;endFill=0;strokeWidth=1;fontStyle=1" parent="1" source="6S9Bv0-yqiVQl9u7fNV4-129" target="6S9Bv0-yqiVQl9u7fNV4-136" edge="1">
          <mxGeometry relative="1" as="geometry" />
        </mxCell>
        <mxCell id="6S9Bv0-yqiVQl9u7fNV4-203" style="edgeStyle=none;shape=connector;rounded=0;orthogonalLoop=1;jettySize=auto;html=1;exitX=0.25;exitY=0;exitDx=0;exitDy=0;entryX=0.5;entryY=1;entryDx=0;entryDy=0;align=center;verticalAlign=middle;fontFamily=Helvetica;fontSize=11;fontColor=default;labelBackgroundColor=default;endArrow=none;endFill=0;strokeWidth=1;fontStyle=1" parent="1" source="6S9Bv0-yqiVQl9u7fNV4-129" target="6S9Bv0-yqiVQl9u7fNV4-134" edge="1">
          <mxGeometry relative="1" as="geometry" />
        </mxCell>
        <mxCell id="6S9Bv0-yqiVQl9u7fNV4-204" style="edgeStyle=none;shape=connector;rounded=0;orthogonalLoop=1;jettySize=auto;html=1;exitX=0.75;exitY=0;exitDx=0;exitDy=0;entryX=0.5;entryY=1;entryDx=0;entryDy=0;align=center;verticalAlign=middle;fontFamily=Helvetica;fontSize=11;fontColor=default;labelBackgroundColor=default;endArrow=none;endFill=0;strokeWidth=1;fontStyle=1" parent="1" source="6S9Bv0-yqiVQl9u7fNV4-129" target="6S9Bv0-yqiVQl9u7fNV4-135" edge="1">
          <mxGeometry relative="1" as="geometry" />
        </mxCell>
        <mxCell id="6S9Bv0-yqiVQl9u7fNV4-206" style="edgeStyle=none;shape=connector;rounded=0;orthogonalLoop=1;jettySize=auto;html=1;exitX=0;exitY=1;exitDx=0;exitDy=0;entryX=0.5;entryY=0;entryDx=0;entryDy=0;align=center;verticalAlign=middle;fontFamily=Helvetica;fontSize=11;fontColor=default;labelBackgroundColor=default;endArrow=none;endFill=0;strokeWidth=1;fontStyle=1" parent="1" source="6S9Bv0-yqiVQl9u7fNV4-129" target="6S9Bv0-yqiVQl9u7fNV4-132" edge="1">
          <mxGeometry relative="1" as="geometry" />
        </mxCell>
        <mxCell id="6S9Bv0-yqiVQl9u7fNV4-129" value="&lt;font style=&quot;font-size: 20px;&quot;&gt;RAM-Konfig&lt;/font&gt;" style="rounded=0;whiteSpace=wrap;html=1;strokeWidth=1;fontStyle=1" parent="1" vertex="1">
          <mxGeometry x="305.5" y="1633" width="135" height="60" as="geometry" />
        </mxCell>
        <mxCell id="6S9Bv0-yqiVQl9u7fNV4-132" value="ramID(FK)" style="ellipse;whiteSpace=wrap;html=1;strokeWidth=1;fontStyle=1" parent="1" vertex="1">
          <mxGeometry x="184" y="1730" width="125" height="50" as="geometry" />
        </mxCell>
        <mxCell id="6S9Bv0-yqiVQl9u7fNV4-134" value="name" style="ellipse;whiteSpace=wrap;html=1;strokeWidth=1;fontStyle=1" parent="1" vertex="1">
          <mxGeometry x="251.5" y="1550" width="125" height="50" as="geometry" />
        </mxCell>
        <mxCell id="6S9Bv0-yqiVQl9u7fNV4-135" value="moduleCount" style="ellipse;whiteSpace=wrap;html=1;strokeWidth=1;fontStyle=1" parent="1" vertex="1">
          <mxGeometry x="383.5" y="1550" width="125" height="50" as="geometry" />
        </mxCell>
        <mxCell id="6S9Bv0-yqiVQl9u7fNV4-136" value="&lt;u&gt;ID&lt;/u&gt;" style="ellipse;whiteSpace=wrap;html=1;strokeWidth=1;fontStyle=1" parent="1" vertex="1">
          <mxGeometry x="118.5" y="1550" width="125" height="50" as="geometry" />
        </mxCell>
        <mxCell id="6S9Bv0-yqiVQl9u7fNV4-195" style="edgeStyle=none;shape=connector;rounded=0;orthogonalLoop=1;jettySize=auto;html=1;exitX=1;exitY=0;exitDx=0;exitDy=0;entryX=0.5;entryY=1;entryDx=0;entryDy=0;align=center;verticalAlign=middle;fontFamily=Helvetica;fontSize=11;fontColor=default;labelBackgroundColor=default;endArrow=none;endFill=0;strokeWidth=1;fontStyle=1" parent="1" source="6S9Bv0-yqiVQl9u7fNV4-139" target="6S9Bv0-yqiVQl9u7fNV4-144" edge="1">
          <mxGeometry relative="1" as="geometry" />
        </mxCell>
        <mxCell id="6S9Bv0-yqiVQl9u7fNV4-196" style="edgeStyle=none;shape=connector;rounded=0;orthogonalLoop=1;jettySize=auto;html=1;exitX=0;exitY=1;exitDx=0;exitDy=0;entryX=0.5;entryY=0;entryDx=0;entryDy=0;align=center;verticalAlign=middle;fontFamily=Helvetica;fontSize=11;fontColor=default;labelBackgroundColor=default;endArrow=none;endFill=0;strokeWidth=1;fontStyle=1" parent="1" source="6S9Bv0-yqiVQl9u7fNV4-139" target="6S9Bv0-yqiVQl9u7fNV4-143" edge="1">
          <mxGeometry relative="1" as="geometry" />
        </mxCell>
        <mxCell id="6S9Bv0-yqiVQl9u7fNV4-197" style="edgeStyle=none;shape=connector;rounded=0;orthogonalLoop=1;jettySize=auto;html=1;exitX=0;exitY=0;exitDx=0;exitDy=0;entryX=0.5;entryY=1;entryDx=0;entryDy=0;align=center;verticalAlign=middle;fontFamily=Helvetica;fontSize=11;fontColor=default;labelBackgroundColor=default;endArrow=none;endFill=0;strokeWidth=1;fontStyle=1" parent="1" source="6S9Bv0-yqiVQl9u7fNV4-139" target="6S9Bv0-yqiVQl9u7fNV4-145" edge="1">
          <mxGeometry relative="1" as="geometry" />
        </mxCell>
        <mxCell id="6S9Bv0-yqiVQl9u7fNV4-200" style="edgeStyle=none;shape=connector;rounded=0;orthogonalLoop=1;jettySize=auto;html=1;exitX=1;exitY=1;exitDx=0;exitDy=0;entryX=0.5;entryY=0;entryDx=0;entryDy=0;align=center;verticalAlign=middle;fontFamily=Helvetica;fontSize=11;fontColor=default;labelBackgroundColor=default;endArrow=none;endFill=0;strokeWidth=1;fontStyle=1" parent="1" source="6S9Bv0-yqiVQl9u7fNV4-139" target="6S9Bv0-yqiVQl9u7fNV4-142" edge="1">
          <mxGeometry relative="1" as="geometry" />
        </mxCell>
        <mxCell id="6S9Bv0-yqiVQl9u7fNV4-139" value="&lt;font style=&quot;font-size: 20px;&quot;&gt;Software&lt;/font&gt;" style="rounded=0;whiteSpace=wrap;html=1;strokeWidth=1;fontStyle=1" parent="1" vertex="1">
          <mxGeometry x="-1060" y="658" width="135" height="60" as="geometry" />
        </mxCell>
        <mxCell id="6S9Bv0-yqiVQl9u7fNV4-142" value="price" style="ellipse;whiteSpace=wrap;html=1;strokeWidth=1;fontStyle=1" parent="1" vertex="1">
          <mxGeometry x="-976.5" y="761" width="125" height="50" as="geometry" />
        </mxCell>
        <mxCell id="6S9Bv0-yqiVQl9u7fNV4-143" value="version" style="ellipse;whiteSpace=wrap;html=1;strokeWidth=1;fontStyle=1" parent="1" vertex="1">
          <mxGeometry x="-1130" y="761" width="125" height="50" as="geometry" />
        </mxCell>
        <mxCell id="6S9Bv0-yqiVQl9u7fNV4-144" value="name" style="ellipse;whiteSpace=wrap;html=1;strokeWidth=1;fontStyle=1" parent="1" vertex="1">
          <mxGeometry x="-980" y="575" width="125" height="50" as="geometry" />
        </mxCell>
        <mxCell id="6S9Bv0-yqiVQl9u7fNV4-145" value="&lt;u&gt;ID&lt;/u&gt;" style="ellipse;whiteSpace=wrap;html=1;strokeWidth=1;fontStyle=1" parent="1" vertex="1">
          <mxGeometry x="-1130" y="575" width="125" height="50" as="geometry" />
        </mxCell>
        <mxCell id="6S9Bv0-yqiVQl9u7fNV4-181" style="edgeStyle=none;shape=connector;rounded=0;orthogonalLoop=1;jettySize=auto;html=1;exitX=0;exitY=0.5;exitDx=0;exitDy=0;align=center;verticalAlign=middle;fontFamily=Helvetica;fontSize=11;fontColor=default;labelBackgroundColor=default;endArrow=none;endFill=0;entryX=0.75;entryY=1;entryDx=0;entryDy=0;strokeWidth=1;fontStyle=1" parent="1" source="6S9Bv0-yqiVQl9u7fNV4-290" target="6S9Bv0-yqiVQl9u7fNV4-14" edge="1">
          <mxGeometry relative="1" as="geometry">
            <mxPoint x="-51" y="1391" as="sourcePoint" />
            <mxPoint x="-305" y="739" as="targetPoint" />
          </mxGeometry>
        </mxCell>
        <mxCell id="6S9Bv0-yqiVQl9u7fNV4-191" style="edgeStyle=none;shape=connector;rounded=0;orthogonalLoop=1;jettySize=auto;html=1;exitX=1;exitY=0.5;exitDx=0;exitDy=0;entryX=0;entryY=0.5;entryDx=0;entryDy=0;align=center;verticalAlign=middle;fontFamily=Helvetica;fontSize=11;fontColor=default;labelBackgroundColor=default;endArrow=none;endFill=0;strokeWidth=1;fontStyle=1" parent="1" source="6S9Bv0-yqiVQl9u7fNV4-290" target="6S9Bv0-yqiVQl9u7fNV4-129" edge="1">
          <mxGeometry relative="1" as="geometry">
            <mxPoint x="68.5" y="1628.5" as="sourcePoint" />
          </mxGeometry>
        </mxCell>
        <mxCell id="6S9Bv0-yqiVQl9u7fNV4-180" style="edgeStyle=none;shape=connector;rounded=0;orthogonalLoop=1;jettySize=auto;html=1;exitX=0;exitY=0.5;exitDx=0;exitDy=0;align=center;verticalAlign=middle;fontFamily=Helvetica;fontSize=11;fontColor=default;labelBackgroundColor=default;endArrow=none;endFill=0;entryX=1;entryY=1;entryDx=0;entryDy=0;strokeWidth=1;fontStyle=1" parent="1" source="6S9Bv0-yqiVQl9u7fNV4-289" target="6S9Bv0-yqiVQl9u7fNV4-14" edge="1">
          <mxGeometry relative="1" as="geometry">
            <mxPoint x="-51" y="1122" as="sourcePoint" />
            <mxPoint x="-245" y="729" as="targetPoint" />
          </mxGeometry>
        </mxCell>
        <mxCell id="6S9Bv0-yqiVQl9u7fNV4-189" style="edgeStyle=none;shape=connector;rounded=0;orthogonalLoop=1;jettySize=auto;html=1;exitX=1;exitY=0.5;exitDx=0;exitDy=0;entryX=0;entryY=0.5;entryDx=0;entryDy=0;align=center;verticalAlign=middle;fontFamily=Helvetica;fontSize=11;fontColor=default;labelBackgroundColor=default;endArrow=none;endFill=0;strokeWidth=1;fontStyle=1" parent="1" source="6S9Bv0-yqiVQl9u7fNV4-289" target="6S9Bv0-yqiVQl9u7fNV4-115" edge="1">
          <mxGeometry relative="1" as="geometry">
            <mxPoint x="68.5" y="1359.5" as="sourcePoint" />
          </mxGeometry>
        </mxCell>
        <mxCell id="6S9Bv0-yqiVQl9u7fNV4-166" style="edgeStyle=none;rounded=0;orthogonalLoop=1;jettySize=auto;html=1;exitX=1;exitY=0.5;exitDx=0;exitDy=0;entryX=0.25;entryY=0;entryDx=0;entryDy=0;endArrow=none;endFill=0;strokeWidth=1;fontStyle=1" parent="1" source="6S9Bv0-yqiVQl9u7fNV4-292" target="6S9Bv0-yqiVQl9u7fNV4-15" edge="1">
          <mxGeometry relative="1" as="geometry">
            <mxPoint x="805" y="-262" as="sourcePoint" />
          </mxGeometry>
        </mxCell>
        <mxCell id="6S9Bv0-yqiVQl9u7fNV4-170" style="edgeStyle=none;rounded=0;orthogonalLoop=1;jettySize=auto;html=1;exitX=1;exitY=0.5;exitDx=0;exitDy=0;entryX=0;entryY=0;entryDx=0;entryDy=0;endArrow=none;endFill=0;strokeWidth=1;fontStyle=1" parent="1" source="6S9Bv0-yqiVQl9u7fNV4-293" target="6S9Bv0-yqiVQl9u7fNV4-15" edge="1">
          <mxGeometry relative="1" as="geometry">
            <mxPoint x="805" y="31" as="sourcePoint" />
          </mxGeometry>
        </mxCell>
        <mxCell id="6S9Bv0-yqiVQl9u7fNV4-173" style="edgeStyle=none;shape=connector;rounded=0;orthogonalLoop=1;jettySize=auto;html=1;exitX=1;exitY=0.5;exitDx=0;exitDy=0;align=center;verticalAlign=middle;fontFamily=Helvetica;fontSize=11;fontColor=default;labelBackgroundColor=default;endArrow=none;endFill=0;strokeWidth=1;fontStyle=1;entryX=0.005;entryY=0.566;entryDx=0;entryDy=0;entryPerimeter=0;" parent="1" source="6S9Bv0-yqiVQl9u7fNV4-295" target="6S9Bv0-yqiVQl9u7fNV4-15" edge="1">
          <mxGeometry relative="1" as="geometry">
            <mxPoint x="925" y="699" as="targetPoint" />
            <mxPoint x="805" y="861" as="sourcePoint" />
          </mxGeometry>
        </mxCell>
        <mxCell id="6S9Bv0-yqiVQl9u7fNV4-172" style="edgeStyle=none;shape=connector;rounded=0;orthogonalLoop=1;jettySize=auto;html=1;exitX=1;exitY=0.5;exitDx=0;exitDy=0;entryX=0;entryY=0.5;entryDx=0;entryDy=0;align=center;verticalAlign=middle;fontFamily=Helvetica;fontSize=11;fontColor=default;labelBackgroundColor=default;endArrow=none;endFill=0;strokeWidth=1;fontStyle=1" parent="1" source="6S9Bv0-yqiVQl9u7fNV4-294" target="6S9Bv0-yqiVQl9u7fNV4-15" edge="1">
          <mxGeometry relative="1" as="geometry">
            <mxPoint x="805" y="588" as="sourcePoint" />
          </mxGeometry>
        </mxCell>
        <mxCell id="6S9Bv0-yqiVQl9u7fNV4-175" style="edgeStyle=none;shape=connector;rounded=0;orthogonalLoop=1;jettySize=auto;html=1;exitX=1;exitY=0.5;exitDx=0;exitDy=0;entryX=0.25;entryY=1;entryDx=0;entryDy=0;align=center;verticalAlign=middle;fontFamily=Helvetica;fontSize=11;fontColor=default;labelBackgroundColor=default;endArrow=none;endFill=0;strokeWidth=1;fontStyle=1" parent="1" source="6S9Bv0-yqiVQl9u7fNV4-297" target="6S9Bv0-yqiVQl9u7fNV4-15" edge="1">
          <mxGeometry relative="1" as="geometry">
            <mxPoint x="805" y="1391" as="sourcePoint" />
          </mxGeometry>
        </mxCell>
        <mxCell id="6S9Bv0-yqiVQl9u7fNV4-174" style="edgeStyle=none;shape=connector;rounded=0;orthogonalLoop=1;jettySize=auto;html=1;exitX=1;exitY=0.5;exitDx=0;exitDy=0;align=center;verticalAlign=middle;fontFamily=Helvetica;fontSize=11;fontColor=default;labelBackgroundColor=default;endArrow=none;endFill=0;entryX=0;entryY=1;entryDx=0;entryDy=0;strokeWidth=1;fontStyle=1" parent="1" source="6S9Bv0-yqiVQl9u7fNV4-296" target="6S9Bv0-yqiVQl9u7fNV4-15" edge="1">
          <mxGeometry relative="1" as="geometry">
            <mxPoint x="925" y="729" as="targetPoint" />
            <mxPoint x="805" y="1122" as="sourcePoint" />
          </mxGeometry>
        </mxCell>
        <mxCell id="6S9Bv0-yqiVQl9u7fNV4-213" style="edgeStyle=none;shape=connector;rounded=0;orthogonalLoop=1;jettySize=auto;html=1;exitX=0.25;exitY=0;exitDx=0;exitDy=0;entryX=0.5;entryY=1;entryDx=0;entryDy=0;align=center;verticalAlign=middle;fontFamily=Helvetica;fontSize=11;fontColor=default;labelBackgroundColor=default;endArrow=none;endFill=0;strokeWidth=1;fontStyle=1" parent="1" source="6S9Bv0-yqiVQl9u7fNV4-115" target="6S9Bv0-yqiVQl9u7fNV4-124" edge="1">
          <mxGeometry relative="1" as="geometry" />
        </mxCell>
        <mxCell id="6S9Bv0-yqiVQl9u7fNV4-264" value="ID" style="ellipse;whiteSpace=wrap;html=1;strokeWidth=1;fontStyle=1" parent="1" vertex="1">
          <mxGeometry x="1014" y="500" width="125" height="50" as="geometry" />
        </mxCell>
        <mxCell id="6S9Bv0-yqiVQl9u7fNV4-265" value="Name" style="ellipse;whiteSpace=wrap;html=1;strokeWidth=1;fontStyle=1" parent="1" vertex="1">
          <mxGeometry x="1014" y="836" width="125" height="50" as="geometry" />
        </mxCell>
        <mxCell id="6S9Bv0-yqiVQl9u7fNV4-268" value="motherboard_id(FK)" style="ellipse;whiteSpace=wrap;html=1;strokeWidth=1;fontStyle=1" parent="1" vertex="1">
          <mxGeometry x="-475" y="379" width="125" height="50" as="geometry" />
        </mxCell>
        <mxCell id="6S9Bv0-yqiVQl9u7fNV4-269" value="psu_id(FK)" style="ellipse;whiteSpace=wrap;html=1;strokeWidth=1;fontStyle=1" parent="1" vertex="1">
          <mxGeometry x="-595" y="354" width="125" height="50" as="geometry" />
        </mxCell>
        <mxCell id="6S9Bv0-yqiVQl9u7fNV4-270" value="casing_id(FK)" style="ellipse;whiteSpace=wrap;html=1;strokeWidth=1;fontStyle=1" parent="1" vertex="1">
          <mxGeometry x="-725" y="329" width="125" height="50" as="geometry" />
        </mxCell>
        <mxCell id="6S9Bv0-yqiVQl9u7fNV4-271" value="&lt;u&gt;ID&lt;/u&gt;" style="ellipse;whiteSpace=wrap;html=1;strokeWidth=1;fontStyle=1" parent="1" vertex="1">
          <mxGeometry x="-800" y="400" width="125" height="50" as="geometry" />
        </mxCell>
        <mxCell id="6S9Bv0-yqiVQl9u7fNV4-272" value="gpu_id(FK)" style="ellipse;whiteSpace=wrap;html=1;strokeWidth=1;fontStyle=1" parent="1" vertex="1">
          <mxGeometry x="-725" y="1028" width="125" height="50" as="geometry" />
        </mxCell>
        <mxCell id="6S9Bv0-yqiVQl9u7fNV4-273" value="disk_drive_id(FK)" style="ellipse;whiteSpace=wrap;html=1;strokeWidth=1;fontStyle=1" parent="1" vertex="1">
          <mxGeometry x="-595" y="999" width="125" height="50" as="geometry" />
        </mxCell>
        <mxCell id="6S9Bv0-yqiVQl9u7fNV4-274" value="ram_config_id(FK)" style="ellipse;whiteSpace=wrap;html=1;strokeWidth=1;fontStyle=1" parent="1" vertex="1">
          <mxGeometry x="-470" y="978" width="125" height="50" as="geometry" />
        </mxCell>
        <mxCell id="6S9Bv0-yqiVQl9u7fNV4-275" value="software_id(FK)" style="ellipse;whiteSpace=wrap;html=1;strokeWidth=1;fontStyle=1" parent="1" vertex="1">
          <mxGeometry x="-355" y="939" width="125" height="50" as="geometry" />
        </mxCell>
        <mxCell id="6S9Bv0-yqiVQl9u7fNV4-284" value="&lt;font style=&quot;font-size: 18px;&quot;&gt;steuert&lt;/font&gt;" style="shape=rhombus;perimeter=rhombusPerimeter;whiteSpace=wrap;html=1;align=center;fontFamily=Helvetica;fontSize=11;labelBackgroundColor=default;strokeWidth=1;fontStyle=1" parent="1" vertex="1">
          <mxGeometry x="-77.5" y="-8" width="135" height="60" as="geometry" />
        </mxCell>
        <mxCell id="6S9Bv0-yqiVQl9u7fNV4-285" value="&lt;font style=&quot;font-size: 18px;&quot;&gt;berechnet&lt;/font&gt;" style="shape=rhombus;perimeter=rhombusPerimeter;whiteSpace=wrap;html=1;align=center;fontFamily=Helvetica;fontSize=11;labelBackgroundColor=default;strokeWidth=1;fontStyle=1" parent="1" vertex="1">
          <mxGeometry x="-77.5" y="354" width="135" height="60" as="geometry" />
        </mxCell>
        <mxCell id="6S9Bv0-yqiVQl9u7fNV4-286" value="&lt;font style=&quot;font-size: 18px;&quot;&gt;beinhaltet&lt;/font&gt;" style="shape=rhombus;perimeter=rhombusPerimeter;whiteSpace=wrap;html=1;align=center;fontFamily=Helvetica;fontSize=11;labelBackgroundColor=default;strokeWidth=1;fontStyle=1" parent="1" vertex="1">
          <mxGeometry x="-77.5" y="-352" width="135" height="60" as="geometry" />
        </mxCell>
        <mxCell id="6S9Bv0-yqiVQl9u7fNV4-287" value="&lt;span style=&quot;font-size: 18px;&quot;&gt;versorgt&lt;/span&gt;" style="shape=rhombus;perimeter=rhombusPerimeter;whiteSpace=wrap;html=1;align=center;fontFamily=Helvetica;fontSize=11;labelBackgroundColor=default;strokeWidth=1;fontStyle=1" parent="1" vertex="1">
          <mxGeometry x="-77.5" y="663" width="135" height="60" as="geometry" />
        </mxCell>
        <mxCell id="6S9Bv0-yqiVQl9u7fNV4-288" value="&lt;font style=&quot;font-size: 16px;&quot;&gt;visualisiert&lt;/font&gt;" style="shape=rhombus;perimeter=rhombusPerimeter;whiteSpace=wrap;html=1;align=center;fontFamily=Helvetica;fontSize=11;labelBackgroundColor=default;strokeWidth=1;fontStyle=1" parent="1" vertex="1">
          <mxGeometry x="-77.5" y="1068.5" width="135" height="60" as="geometry" />
        </mxCell>
        <mxCell id="6S9Bv0-yqiVQl9u7fNV4-289" value="&lt;font style=&quot;font-size: 18px;&quot;&gt;speichert&lt;/font&gt;" style="shape=rhombus;perimeter=rhombusPerimeter;whiteSpace=wrap;html=1;align=center;fontFamily=Helvetica;fontSize=11;labelBackgroundColor=default;strokeWidth=1;fontStyle=1" parent="1" vertex="1">
          <mxGeometry x="-77.5" y="1329.5" width="135" height="60" as="geometry" />
        </mxCell>
        <mxCell id="6S9Bv0-yqiVQl9u7fNV4-290" value="&lt;font style=&quot;font-size: 13px;&quot;&gt;speichert&lt;br&gt;zwischen&lt;/font&gt;" style="shape=rhombus;perimeter=rhombusPerimeter;whiteSpace=wrap;html=1;align=center;fontFamily=Helvetica;fontSize=11;labelBackgroundColor=default;strokeWidth=1;fontStyle=1" parent="1" vertex="1">
          <mxGeometry x="-77.5" y="1633" width="135" height="60" as="geometry" />
        </mxCell>
        <mxCell id="6S9Bv0-yqiVQl9u7fNV4-291" value="&lt;font style=&quot;font-size: 18px;&quot;&gt;betreibt&lt;/font&gt;" style="shape=rhombus;perimeter=rhombusPerimeter;whiteSpace=wrap;html=1;align=center;fontFamily=Helvetica;fontSize=11;labelBackgroundColor=default;strokeWidth=1;fontStyle=1" parent="1" vertex="1">
          <mxGeometry x="-760" y="658" width="135" height="60" as="geometry" />
        </mxCell>
        <mxCell id="6S9Bv0-yqiVQl9u7fNV4-292" value="&lt;font style=&quot;font-size: 18px;&quot;&gt;vertreibt&lt;/font&gt;" style="shape=rhombus;perimeter=rhombusPerimeter;whiteSpace=wrap;html=1;align=center;fontFamily=Helvetica;fontSize=11;labelBackgroundColor=default;strokeWidth=1;fontStyle=1" parent="1" vertex="1">
          <mxGeometry x="705" y="-8" width="135" height="60" as="geometry" />
        </mxCell>
        <mxCell id="6S9Bv0-yqiVQl9u7fNV4-293" value="&lt;font style=&quot;font-size: 18px;&quot;&gt;vertreibt&lt;/font&gt;" style="shape=rhombus;perimeter=rhombusPerimeter;whiteSpace=wrap;html=1;align=center;fontFamily=Helvetica;fontSize=11;labelBackgroundColor=default;strokeWidth=1;fontStyle=1" parent="1" vertex="1">
          <mxGeometry x="698.5" y="357" width="135" height="60" as="geometry" />
        </mxCell>
        <mxCell id="6S9Bv0-yqiVQl9u7fNV4-294" value="&lt;font style=&quot;font-size: 18px;&quot;&gt;vertreibt&lt;/font&gt;" style="shape=rhombus;perimeter=rhombusPerimeter;whiteSpace=wrap;html=1;align=center;fontFamily=Helvetica;fontSize=11;labelBackgroundColor=default;strokeWidth=1;fontStyle=1" parent="1" vertex="1">
          <mxGeometry x="698.5" y="663" width="135" height="60" as="geometry" />
        </mxCell>
        <mxCell id="6S9Bv0-yqiVQl9u7fNV4-295" value="&lt;font style=&quot;font-size: 18px;&quot;&gt;vertreibt&lt;/font&gt;" style="shape=rhombus;perimeter=rhombusPerimeter;whiteSpace=wrap;html=1;align=center;fontFamily=Helvetica;fontSize=11;labelBackgroundColor=default;strokeWidth=1;fontStyle=1" parent="1" vertex="1">
          <mxGeometry x="698.5" y="1068.5" width="135" height="60" as="geometry" />
        </mxCell>
        <mxCell id="6S9Bv0-yqiVQl9u7fNV4-296" value="&lt;font style=&quot;font-size: 18px;&quot;&gt;vertreibt&lt;/font&gt;" style="shape=rhombus;perimeter=rhombusPerimeter;whiteSpace=wrap;html=1;align=center;fontFamily=Helvetica;fontSize=11;labelBackgroundColor=default;strokeWidth=1;fontStyle=1" parent="1" vertex="1">
          <mxGeometry x="698.5" y="1329.5" width="135" height="60" as="geometry" />
        </mxCell>
        <mxCell id="6S9Bv0-yqiVQl9u7fNV4-297" value="&lt;font style=&quot;font-size: 18px;&quot;&gt;vertreibt&lt;/font&gt;" style="shape=rhombus;perimeter=rhombusPerimeter;whiteSpace=wrap;html=1;align=center;fontFamily=Helvetica;fontSize=11;labelBackgroundColor=default;strokeWidth=1;fontStyle=1" parent="1" vertex="1">
          <mxGeometry x="698.5" y="1915" width="135" height="60" as="geometry" />
        </mxCell>
        <mxCell id="6S9Bv0-yqiVQl9u7fNV4-298" value="cpu_id(FK)" style="ellipse;whiteSpace=wrap;html=1;strokeWidth=1;fontStyle=1" parent="1" vertex="1">
          <mxGeometry x="-650" y="575" width="125" height="50" as="geometry" />
        </mxCell>
        <mxCell id="6S9Bv0-yqiVQl9u7fNV4-299" style="edgeStyle=none;shape=connector;rounded=0;orthogonalLoop=1;jettySize=auto;html=1;exitX=1;exitY=0.5;exitDx=0;exitDy=0;entryX=0;entryY=0.25;entryDx=0;entryDy=0;strokeColor=default;align=center;verticalAlign=middle;fontFamily=Helvetica;fontSize=11;fontColor=default;labelBackgroundColor=default;endArrow=none;endFill=0;strokeWidth=1;fontStyle=1" parent="1" source="6S9Bv0-yqiVQl9u7fNV4-298" target="6S9Bv0-yqiVQl9u7fNV4-14" edge="1">
          <mxGeometry relative="1" as="geometry" />
        </mxCell>
        <mxCell id="6S9Bv0-yqiVQl9u7fNV4-303" value="&lt;b&gt;&lt;font style=&quot;font-size: 20px;&quot; color=&quot;#fa0000&quot;&gt;1&lt;/font&gt;&lt;/b&gt;" style="text;strokeColor=none;fillColor=none;spacingLeft=4;spacingRight=4;overflow=hidden;rotatable=0;points=[[0,0.5],[1,0.5]];portConstraint=eastwest;fontSize=11;whiteSpace=wrap;html=1;fontFamily=Helvetica;fontColor=default;labelBackgroundColor=default;" parent="1" vertex="1">
          <mxGeometry x="-280" y="628" width="20" height="30" as="geometry" />
        </mxCell>
        <mxCell id="6S9Bv0-yqiVQl9u7fNV4-304" value="&lt;b&gt;&lt;font color=&quot;#fa0000&quot; style=&quot;font-size: 20px;&quot;&gt;1&lt;/font&gt;&lt;/b&gt;" style="text;strokeColor=none;fillColor=none;spacingLeft=4;spacingRight=4;overflow=hidden;rotatable=0;points=[[0,0.5],[1,0.5]];portConstraint=eastwest;fontSize=11;whiteSpace=wrap;html=1;fontFamily=Helvetica;fontColor=default;labelBackgroundColor=none;" parent="1" vertex="1">
          <mxGeometry x="275.88" y="-8" width="20" height="30" as="geometry" />
        </mxCell>
        <mxCell id="6S9Bv0-yqiVQl9u7fNV4-305" value="&lt;b&gt;&lt;font style=&quot;font-size: 20px;&quot; color=&quot;#fa0000&quot;&gt;1&lt;/font&gt;&lt;/b&gt;" style="text;strokeColor=none;fillColor=none;spacingLeft=4;spacingRight=4;overflow=hidden;rotatable=0;points=[[0,0.5],[1,0.5]];portConstraint=eastwest;fontSize=11;whiteSpace=wrap;html=1;fontFamily=Helvetica;fontColor=default;labelBackgroundColor=default;" parent="1" vertex="1">
          <mxGeometry x="-280" y="718" width="20" height="30" as="geometry" />
        </mxCell>
        <mxCell id="6S9Bv0-yqiVQl9u7fNV4-306" value="&lt;b&gt;&lt;font color=&quot;#fa0000&quot; style=&quot;font-size: 20px;&quot;&gt;1&lt;/font&gt;&lt;/b&gt;" style="text;strokeColor=none;fillColor=none;spacingLeft=4;spacingRight=4;overflow=hidden;rotatable=0;points=[[0,0.5],[1,0.5]];portConstraint=eastwest;fontSize=11;whiteSpace=wrap;html=1;fontFamily=Helvetica;fontColor=default;labelBackgroundColor=none;" parent="1" vertex="1">
          <mxGeometry x="289" y="1633" width="27" height="30" as="geometry" />
        </mxCell>
        <mxCell id="6S9Bv0-yqiVQl9u7fNV4-307" value="&lt;b&gt;&lt;font color=&quot;#fa0000&quot; style=&quot;font-size: 20px;&quot;&gt;1&lt;/font&gt;&lt;/b&gt;" style="text;strokeColor=none;fillColor=none;spacingLeft=4;spacingRight=4;overflow=hidden;rotatable=0;points=[[0,0.5],[1,0.5]];portConstraint=eastwest;fontSize=11;whiteSpace=wrap;html=1;fontFamily=Helvetica;fontColor=default;labelBackgroundColor=none;" parent="1" vertex="1">
          <mxGeometry x="280" y="1329.5" width="27" height="30" as="geometry" />
        </mxCell>
        <mxCell id="6S9Bv0-yqiVQl9u7fNV4-308" value="&lt;b&gt;&lt;font color=&quot;#fa0000&quot; style=&quot;font-size: 20px;&quot;&gt;1&lt;/font&gt;&lt;/b&gt;" style="text;strokeColor=none;fillColor=none;spacingLeft=4;spacingRight=4;overflow=hidden;rotatable=0;points=[[0,0.5],[1,0.5]];portConstraint=eastwest;fontSize=11;whiteSpace=wrap;html=1;fontFamily=Helvetica;fontColor=default;labelBackgroundColor=none;" parent="1" vertex="1">
          <mxGeometry x="280" y="1068.5" width="27" height="30" as="geometry" />
        </mxCell>
        <mxCell id="6S9Bv0-yqiVQl9u7fNV4-309" value="&lt;b&gt;&lt;font color=&quot;#fa0000&quot; style=&quot;font-size: 20px;&quot;&gt;1&lt;/font&gt;&lt;/b&gt;" style="text;strokeColor=none;fillColor=none;spacingLeft=4;spacingRight=4;overflow=hidden;rotatable=0;points=[[0,0.5],[1,0.5]];portConstraint=eastwest;fontSize=11;whiteSpace=wrap;html=1;fontFamily=Helvetica;fontColor=default;labelBackgroundColor=none;" parent="1" vertex="1">
          <mxGeometry x="272.38" y="354" width="27" height="30" as="geometry" />
        </mxCell>
        <mxCell id="6S9Bv0-yqiVQl9u7fNV4-310" value="&lt;b&gt;&lt;font color=&quot;#fa0000&quot; style=&quot;font-size: 20px;&quot;&gt;1&lt;/font&gt;&lt;/b&gt;" style="text;strokeColor=none;fillColor=none;spacingLeft=4;spacingRight=4;overflow=hidden;rotatable=0;points=[[0,0.5],[1,0.5]];portConstraint=eastwest;fontSize=11;whiteSpace=wrap;html=1;fontFamily=Helvetica;fontColor=default;labelBackgroundColor=none;" parent="1" vertex="1">
          <mxGeometry x="273" y="663" width="27" height="30" as="geometry" />
        </mxCell>
        <mxCell id="6S9Bv0-yqiVQl9u7fNV4-312" value="&lt;b&gt;&lt;font color=&quot;#fa0000&quot; style=&quot;font-size: 20px;&quot;&gt;1&lt;/font&gt;&lt;/b&gt;" style="text;strokeColor=none;fillColor=none;spacingLeft=4;spacingRight=4;overflow=hidden;rotatable=0;points=[[0,0.5],[1,0.5]];portConstraint=eastwest;fontSize=11;whiteSpace=wrap;html=1;fontFamily=Helvetica;fontColor=default;labelBackgroundColor=none;" parent="1" vertex="1">
          <mxGeometry x="-245" y="718" width="20" height="30" as="geometry" />
        </mxCell>
        <mxCell id="6S9Bv0-yqiVQl9u7fNV4-313" value="&lt;b&gt;&lt;font color=&quot;#fa0000&quot; style=&quot;font-size: 20px;&quot;&gt;1&lt;/font&gt;&lt;/b&gt;" style="text;strokeColor=none;fillColor=none;spacingLeft=4;spacingRight=4;overflow=hidden;rotatable=0;points=[[0,0.5],[1,0.5]];portConstraint=eastwest;fontSize=11;whiteSpace=wrap;html=1;fontFamily=Helvetica;fontColor=default;labelBackgroundColor=none;" parent="1" vertex="1">
          <mxGeometry x="-213" y="707" width="20" height="30" as="geometry" />
        </mxCell>
        <mxCell id="6S9Bv0-yqiVQl9u7fNV4-314" value="&lt;b&gt;&lt;font color=&quot;#fa0000&quot; style=&quot;font-size: 20px;&quot;&gt;1&lt;/font&gt;&lt;/b&gt;" style="text;strokeColor=none;fillColor=none;spacingLeft=4;spacingRight=4;overflow=hidden;rotatable=0;points=[[0,0.5],[1,0.5]];portConstraint=eastwest;fontSize=11;whiteSpace=wrap;html=1;fontFamily=Helvetica;fontColor=default;labelBackgroundColor=none;" parent="1" vertex="1">
          <mxGeometry x="-213" y="668" width="20" height="30" as="geometry" />
        </mxCell>
        <mxCell id="6S9Bv0-yqiVQl9u7fNV4-315" value="&lt;b&gt;&lt;font color=&quot;#fa0000&quot; style=&quot;font-size: 20px;&quot;&gt;1&lt;/font&gt;&lt;/b&gt;" style="text;strokeColor=none;fillColor=none;spacingLeft=4;spacingRight=4;overflow=hidden;rotatable=0;points=[[0,0.5],[1,0.5]];portConstraint=eastwest;fontSize=11;whiteSpace=wrap;html=1;fontFamily=Helvetica;fontColor=default;labelBackgroundColor=none;" parent="1" vertex="1">
          <mxGeometry x="-245" y="628" width="20" height="30" as="geometry" />
        </mxCell>
        <mxCell id="6S9Bv0-yqiVQl9u7fNV4-316" value="&lt;b&gt;&lt;font color=&quot;#fa0000&quot; style=&quot;font-size: 20px;&quot;&gt;1&lt;/font&gt;&lt;/b&gt;" style="text;strokeColor=none;fillColor=none;spacingLeft=4;spacingRight=4;overflow=hidden;rotatable=0;points=[[0,0.5],[1,0.5]];portConstraint=eastwest;fontSize=11;whiteSpace=wrap;html=1;fontFamily=Helvetica;fontColor=default;labelBackgroundColor=none;" parent="1" vertex="1">
          <mxGeometry x="279.38" y="-352" width="20" height="30" as="geometry" />
        </mxCell>
        <mxCell id="6S9Bv0-yqiVQl9u7fNV4-318" value="&lt;b&gt;&lt;font color=&quot;#fa0000&quot; style=&quot;font-size: 20px;&quot;&gt;1&lt;/font&gt;&lt;/b&gt;" style="text;strokeColor=none;fillColor=none;spacingLeft=4;spacingRight=4;overflow=hidden;rotatable=0;points=[[0,0.5],[1,0.5]];portConstraint=eastwest;fontSize=11;whiteSpace=wrap;html=1;fontFamily=Helvetica;fontColor=default;labelBackgroundColor=none;" parent="1" vertex="1">
          <mxGeometry x="-410" y="668" width="20" height="30" as="geometry" />
        </mxCell>
        <mxCell id="6S9Bv0-yqiVQl9u7fNV4-319" value="&lt;b&gt;&lt;font color=&quot;#fa0000&quot; style=&quot;font-size: 20px;&quot;&gt;n&lt;/font&gt;&lt;/b&gt;" style="text;strokeColor=none;fillColor=none;spacingLeft=4;spacingRight=4;overflow=hidden;rotatable=0;points=[[0,0.5],[1,0.5]];portConstraint=eastwest;fontSize=11;whiteSpace=wrap;html=1;fontFamily=Helvetica;fontColor=default;labelBackgroundColor=none;" parent="1" vertex="1">
          <mxGeometry x="-924" y="658" width="29" height="30" as="geometry" />
        </mxCell>
        <mxCell id="6S9Bv0-yqiVQl9u7fNV4-320" value="&lt;b&gt;&lt;font color=&quot;#fa0000&quot; style=&quot;font-size: 20px;&quot;&gt;1&lt;/font&gt;&lt;/b&gt;" style="text;strokeColor=none;fillColor=none;spacingLeft=4;spacingRight=4;overflow=hidden;rotatable=0;points=[[0,0.5],[1,0.5]];portConstraint=eastwest;fontSize=11;whiteSpace=wrap;html=1;fontFamily=Helvetica;fontColor=default;labelBackgroundColor=none;" parent="1" vertex="1">
          <mxGeometry x="950" y="633" width="20" height="30" as="geometry" />
        </mxCell>
        <mxCell id="6S9Bv0-yqiVQl9u7fNV4-321" value="&lt;b&gt;&lt;font color=&quot;#fa0000&quot; style=&quot;font-size: 20px;&quot;&gt;1&lt;/font&gt;&lt;/b&gt;" style="text;strokeColor=none;fillColor=none;spacingLeft=4;spacingRight=4;overflow=hidden;rotatable=0;points=[[0,0.5],[1,0.5]];portConstraint=eastwest;fontSize=11;whiteSpace=wrap;html=1;fontFamily=Helvetica;fontColor=default;labelBackgroundColor=none;" parent="1" vertex="1">
          <mxGeometry x="915" y="633" width="20" height="30" as="geometry" />
        </mxCell>
        <mxCell id="6S9Bv0-yqiVQl9u7fNV4-322" value="&lt;b&gt;&lt;font color=&quot;#fa0000&quot; style=&quot;font-size: 20px;&quot;&gt;1&lt;/font&gt;&lt;/b&gt;" style="text;strokeColor=none;fillColor=none;spacingLeft=4;spacingRight=4;overflow=hidden;rotatable=0;points=[[0,0.5],[1,0.5]];portConstraint=eastwest;fontSize=11;whiteSpace=wrap;html=1;fontFamily=Helvetica;fontColor=default;labelBackgroundColor=none;" parent="1" vertex="1">
          <mxGeometry x="904" y="654" width="20" height="30" as="geometry" />
        </mxCell>
        <mxCell id="6S9Bv0-yqiVQl9u7fNV4-323" value="&lt;b&gt;&lt;font color=&quot;#fa0000&quot; style=&quot;font-size: 20px;&quot;&gt;1&lt;/font&gt;&lt;/b&gt;" style="text;strokeColor=none;fillColor=none;spacingLeft=4;spacingRight=4;overflow=hidden;rotatable=0;points=[[0,0.5],[1,0.5]];portConstraint=eastwest;fontSize=11;whiteSpace=wrap;html=1;fontFamily=Helvetica;fontColor=default;labelBackgroundColor=none;" parent="1" vertex="1">
          <mxGeometry x="904" y="684" width="20" height="30" as="geometry" />
        </mxCell>
        <mxCell id="6S9Bv0-yqiVQl9u7fNV4-324" value="&lt;b&gt;&lt;font color=&quot;#fa0000&quot; style=&quot;font-size: 20px;&quot;&gt;1&lt;/font&gt;&lt;/b&gt;" style="text;strokeColor=none;fillColor=none;spacingLeft=4;spacingRight=4;overflow=hidden;rotatable=0;points=[[0,0.5],[1,0.5]];portConstraint=eastwest;fontSize=11;whiteSpace=wrap;html=1;fontFamily=Helvetica;fontColor=default;labelBackgroundColor=none;" parent="1" vertex="1">
          <mxGeometry x="904" y="723" width="20" height="30" as="geometry" />
        </mxCell>
        <mxCell id="6S9Bv0-yqiVQl9u7fNV4-325" value="&lt;b&gt;&lt;font color=&quot;#fa0000&quot; style=&quot;font-size: 20px;&quot;&gt;1&lt;/font&gt;&lt;/b&gt;" style="text;strokeColor=none;fillColor=none;spacingLeft=4;spacingRight=4;overflow=hidden;rotatable=0;points=[[0,0.5],[1,0.5]];portConstraint=eastwest;fontSize=11;whiteSpace=wrap;html=1;fontFamily=Helvetica;fontColor=default;labelBackgroundColor=none;" parent="1" vertex="1">
          <mxGeometry x="938" y="723" width="20" height="30" as="geometry" />
        </mxCell>
        <mxCell id="6S9Bv0-yqiVQl9u7fNV4-326" value="&lt;b&gt;&lt;font color=&quot;#fa0000&quot; style=&quot;font-size: 20px;&quot;&gt;n&lt;/font&gt;&lt;/b&gt;" style="text;strokeColor=none;fillColor=none;spacingLeft=4;spacingRight=4;overflow=hidden;rotatable=0;points=[[0,0.5],[1,0.5]];portConstraint=eastwest;fontSize=11;whiteSpace=wrap;html=1;fontFamily=Helvetica;fontColor=default;labelBackgroundColor=none;" parent="1" vertex="1">
          <mxGeometry x="431.5" y="663" width="27" height="30" as="geometry" />
        </mxCell>
        <mxCell id="6S9Bv0-yqiVQl9u7fNV4-327" value="&lt;b&gt;&lt;font color=&quot;#fa0000&quot; style=&quot;font-size: 20px;&quot;&gt;n&lt;/font&gt;&lt;/b&gt;" style="text;strokeColor=none;fillColor=none;spacingLeft=4;spacingRight=4;overflow=hidden;rotatable=0;points=[[0,0.5],[1,0.5]];portConstraint=eastwest;fontSize=11;whiteSpace=wrap;html=1;fontFamily=Helvetica;fontColor=default;labelBackgroundColor=none;" parent="1" vertex="1">
          <mxGeometry x="430.88" y="-8" width="27" height="30" as="geometry" />
        </mxCell>
        <mxCell id="6S9Bv0-yqiVQl9u7fNV4-328" value="&lt;b&gt;&lt;font color=&quot;#fa0000&quot; style=&quot;font-size: 20px;&quot;&gt;n&lt;/font&gt;&lt;/b&gt;" style="text;strokeColor=none;fillColor=none;spacingLeft=4;spacingRight=4;overflow=hidden;rotatable=0;points=[[0,0.5],[1,0.5]];portConstraint=eastwest;fontSize=11;whiteSpace=wrap;html=1;fontFamily=Helvetica;fontColor=default;labelBackgroundColor=none;" parent="1" vertex="1">
          <mxGeometry x="431.5" y="354" width="27" height="30" as="geometry" />
        </mxCell>
        <mxCell id="6S9Bv0-yqiVQl9u7fNV4-329" value="&lt;b&gt;&lt;font color=&quot;#fa0000&quot; style=&quot;font-size: 20px;&quot;&gt;n&lt;/font&gt;&lt;/b&gt;" style="text;strokeColor=none;fillColor=none;spacingLeft=4;spacingRight=4;overflow=hidden;rotatable=0;points=[[0,0.5],[1,0.5]];portConstraint=eastwest;fontSize=11;whiteSpace=wrap;html=1;fontFamily=Helvetica;fontColor=default;labelBackgroundColor=none;" parent="1" vertex="1">
          <mxGeometry x="438.5" y="1068.5" width="27" height="30" as="geometry" />
        </mxCell>
        <mxCell id="6S9Bv0-yqiVQl9u7fNV4-330" value="&lt;b&gt;&lt;font color=&quot;#fa0000&quot; style=&quot;font-size: 20px;&quot;&gt;n&lt;/font&gt;&lt;/b&gt;" style="text;strokeColor=none;fillColor=none;spacingLeft=4;spacingRight=4;overflow=hidden;rotatable=0;points=[[0,0.5],[1,0.5]];portConstraint=eastwest;fontSize=11;whiteSpace=wrap;html=1;fontFamily=Helvetica;fontColor=default;labelBackgroundColor=none;" parent="1" vertex="1">
          <mxGeometry x="438.5" y="1329.5" width="27" height="30" as="geometry" />
        </mxCell>
        <mxCell id="6S9Bv0-yqiVQl9u7fNV4-331" value="&lt;b&gt;&lt;font color=&quot;#fa0000&quot; style=&quot;font-size: 20px;&quot;&gt;n&lt;/font&gt;&lt;/b&gt;" style="text;strokeColor=none;fillColor=none;spacingLeft=4;spacingRight=4;overflow=hidden;rotatable=0;points=[[0,0.5],[1,0.5]];portConstraint=eastwest;fontSize=11;whiteSpace=wrap;html=1;fontFamily=Helvetica;fontColor=default;labelBackgroundColor=none;" parent="1" vertex="1">
          <mxGeometry x="447.5" y="1915" width="27" height="30" as="geometry" />
        </mxCell>
        <mxCell id="Ul2NhaRGqpGKgxj8_X_V-1" style="edgeStyle=none;shape=connector;rounded=0;orthogonalLoop=1;jettySize=auto;html=1;exitX=0;exitY=1;exitDx=0;exitDy=0;entryX=0.5;entryY=0;entryDx=0;entryDy=0;align=center;verticalAlign=middle;fontFamily=Helvetica;fontSize=11;fontColor=default;labelBackgroundColor=default;endArrow=none;endFill=0;strokeWidth=1;fontStyle=1" parent="1" source="Ul2NhaRGqpGKgxj8_X_V-7" target="Ul2NhaRGqpGKgxj8_X_V-8" edge="1">
          <mxGeometry relative="1" as="geometry" />
        </mxCell>
        <mxCell id="Ul2NhaRGqpGKgxj8_X_V-2" style="edgeStyle=none;shape=connector;rounded=0;orthogonalLoop=1;jettySize=auto;html=1;exitX=0;exitY=0;exitDx=0;exitDy=0;entryX=0.5;entryY=1;entryDx=0;entryDy=0;align=center;verticalAlign=middle;fontFamily=Helvetica;fontSize=11;fontColor=default;labelBackgroundColor=default;endArrow=none;endFill=0;strokeWidth=1;fontStyle=1" parent="1" source="Ul2NhaRGqpGKgxj8_X_V-7" target="Ul2NhaRGqpGKgxj8_X_V-13" edge="1">
          <mxGeometry relative="1" as="geometry" />
        </mxCell>
        <mxCell id="Ul2NhaRGqpGKgxj8_X_V-3" style="edgeStyle=none;shape=connector;rounded=0;orthogonalLoop=1;jettySize=auto;html=1;entryX=0.5;entryY=1;entryDx=0;entryDy=0;align=center;verticalAlign=middle;fontFamily=Helvetica;fontSize=11;fontColor=default;labelBackgroundColor=default;endArrow=none;endFill=0;strokeWidth=1;fontStyle=1;exitX=0.5;exitY=0;exitDx=0;exitDy=0;" parent="1" source="Ul2NhaRGqpGKgxj8_X_V-16" target="6S9Bv0-yqiVQl9u7fNV4-129" edge="1">
          <mxGeometry relative="1" as="geometry">
            <mxPoint x="380" y="1772" as="sourcePoint" />
            <mxPoint x="380" y="1882" as="targetPoint" />
          </mxGeometry>
        </mxCell>
        <mxCell id="Ul2NhaRGqpGKgxj8_X_V-4" style="edgeStyle=none;shape=connector;rounded=0;orthogonalLoop=1;jettySize=auto;html=1;exitX=1;exitY=0;exitDx=0;exitDy=0;entryX=0.5;entryY=1;entryDx=0;entryDy=0;align=center;verticalAlign=middle;fontFamily=Helvetica;fontSize=11;fontColor=default;labelBackgroundColor=default;endArrow=none;endFill=0;strokeWidth=1;fontStyle=1" parent="1" source="Ul2NhaRGqpGKgxj8_X_V-7" target="Ul2NhaRGqpGKgxj8_X_V-12" edge="1">
          <mxGeometry relative="1" as="geometry" />
        </mxCell>
        <mxCell id="Ul2NhaRGqpGKgxj8_X_V-5" style="edgeStyle=none;shape=connector;rounded=0;orthogonalLoop=1;jettySize=auto;html=1;exitX=1;exitY=1;exitDx=0;exitDy=0;entryX=0.5;entryY=0;entryDx=0;entryDy=0;align=center;verticalAlign=middle;fontFamily=Helvetica;fontSize=11;fontColor=default;labelBackgroundColor=default;endArrow=none;endFill=0;strokeWidth=1;fontStyle=1" parent="1" source="Ul2NhaRGqpGKgxj8_X_V-7" target="Ul2NhaRGqpGKgxj8_X_V-10" edge="1">
          <mxGeometry relative="1" as="geometry" />
        </mxCell>
        <mxCell id="Ul2NhaRGqpGKgxj8_X_V-6" style="edgeStyle=none;shape=connector;rounded=0;orthogonalLoop=1;jettySize=auto;html=1;exitX=0.5;exitY=1;exitDx=0;exitDy=0;entryX=0.5;entryY=0;entryDx=0;entryDy=0;align=center;verticalAlign=middle;fontFamily=Helvetica;fontSize=11;fontColor=default;labelBackgroundColor=default;endArrow=none;endFill=0;strokeWidth=1;fontStyle=1" parent="1" source="Ul2NhaRGqpGKgxj8_X_V-7" target="Ul2NhaRGqpGKgxj8_X_V-9" edge="1">
          <mxGeometry relative="1" as="geometry" />
        </mxCell>
        <mxCell id="Ul2NhaRGqpGKgxj8_X_V-7" value="&lt;font style=&quot;font-size: 20px;&quot;&gt;RAM&lt;/font&gt;" style="rounded=0;whiteSpace=wrap;html=1;strokeWidth=1;fontStyle=1" parent="1" vertex="1">
          <mxGeometry x="305.5" y="1915" width="135" height="60" as="geometry" />
        </mxCell>
        <mxCell id="Ul2NhaRGqpGKgxj8_X_V-8" value="name" style="ellipse;whiteSpace=wrap;html=1;strokeWidth=1;fontStyle=1" parent="1" vertex="1">
          <mxGeometry x="178" y="2012" width="125" height="50" as="geometry" />
        </mxCell>
        <mxCell id="Ul2NhaRGqpGKgxj8_X_V-9" value="brand_id(FK)" style="ellipse;whiteSpace=wrap;html=1;strokeWidth=1;fontStyle=1" parent="1" vertex="1">
          <mxGeometry x="311" y="2012" width="125" height="50" as="geometry" />
        </mxCell>
        <mxCell id="Ul2NhaRGqpGKgxj8_X_V-10" value="price" style="ellipse;whiteSpace=wrap;html=1;strokeWidth=1;fontStyle=1" parent="1" vertex="1">
          <mxGeometry x="443" y="2012" width="125" height="50" as="geometry" />
        </mxCell>
        <mxCell id="Ul2NhaRGqpGKgxj8_X_V-12" value="capacity" style="ellipse;whiteSpace=wrap;html=1;strokeWidth=1;fontStyle=1" parent="1" vertex="1">
          <mxGeometry x="449.5" y="1832" width="125" height="50" as="geometry" />
        </mxCell>
        <mxCell id="Ul2NhaRGqpGKgxj8_X_V-13" value="&lt;u&gt;ID&lt;/u&gt;" style="ellipse;whiteSpace=wrap;html=1;strokeWidth=1;fontStyle=1" parent="1" vertex="1">
          <mxGeometry x="184.5" y="1832" width="125" height="50" as="geometry" />
        </mxCell>
        <mxCell id="Ul2NhaRGqpGKgxj8_X_V-16" value="&lt;font style=&quot;font-size: 16px;&quot;&gt;besteht aus&lt;/font&gt;" style="shape=rhombus;perimeter=rhombusPerimeter;whiteSpace=wrap;html=1;align=center;fontFamily=Helvetica;fontSize=11;labelBackgroundColor=default;strokeWidth=1;fontStyle=1" parent="1" vertex="1">
          <mxGeometry x="305.5" y="1772" width="135" height="60" as="geometry" />
        </mxCell>
        <mxCell id="Ul2NhaRGqpGKgxj8_X_V-17" style="edgeStyle=none;shape=connector;rounded=0;orthogonalLoop=1;jettySize=auto;html=1;entryX=0.5;entryY=1;entryDx=0;entryDy=0;align=center;verticalAlign=middle;fontFamily=Helvetica;fontSize=11;fontColor=default;labelBackgroundColor=default;endArrow=none;endFill=0;strokeWidth=1;fontStyle=1;exitX=0.5;exitY=0;exitDx=0;exitDy=0;" parent="1" source="Ul2NhaRGqpGKgxj8_X_V-7" target="Ul2NhaRGqpGKgxj8_X_V-16" edge="1">
          <mxGeometry relative="1" as="geometry">
            <mxPoint x="389" y="1790" as="sourcePoint" />
            <mxPoint x="390" y="1703" as="targetPoint" />
            <Array as="points" />
          </mxGeometry>
        </mxCell>
        <mxCell id="Ul2NhaRGqpGKgxj8_X_V-18" value="&lt;b&gt;&lt;font color=&quot;#fa0000&quot; style=&quot;font-size: 20px;&quot;&gt;n&lt;/font&gt;&lt;/b&gt;" style="text;strokeColor=none;fillColor=none;spacingLeft=4;spacingRight=4;overflow=hidden;rotatable=0;points=[[0,0.5],[1,0.5]];portConstraint=eastwest;fontSize=11;whiteSpace=wrap;html=1;fontFamily=Helvetica;fontColor=default;labelBackgroundColor=none;" parent="1" vertex="1">
          <mxGeometry x="352" y="1885" width="27" height="30" as="geometry" />
        </mxCell>
        <mxCell id="Ul2NhaRGqpGKgxj8_X_V-19" value="&lt;b&gt;&lt;font color=&quot;#fa0000&quot; style=&quot;font-size: 20px;&quot;&gt;m&lt;/font&gt;&lt;/b&gt;" style="text;strokeColor=none;fillColor=none;spacingLeft=4;spacingRight=4;overflow=hidden;rotatable=0;points=[[0,0.5],[1,0.5]];portConstraint=eastwest;fontSize=11;whiteSpace=wrap;html=1;fontFamily=Helvetica;fontColor=default;labelBackgroundColor=none;" parent="1" vertex="1">
          <mxGeometry x="347.38" y="1682" width="27" height="30" as="geometry" />
        </mxCell>
        <mxCell id="MKiafoChqtkdiT2covnA-1" value="totalCapacity_gb" style="ellipse;whiteSpace=wrap;html=1;strokeWidth=1;fontStyle=1" vertex="1" parent="1">
          <mxGeometry x="447" y="1730" width="125" height="50" as="geometry" />
        </mxCell>
        <mxCell id="MKiafoChqtkdiT2covnA-2" style="edgeStyle=none;shape=connector;rounded=0;orthogonalLoop=1;jettySize=auto;html=1;exitX=1;exitY=1;exitDx=0;exitDy=0;entryX=0.5;entryY=0;entryDx=0;entryDy=0;align=center;verticalAlign=middle;fontFamily=Helvetica;fontSize=11;fontColor=default;labelBackgroundColor=default;endArrow=none;endFill=0;strokeWidth=1;fontStyle=1" edge="1" parent="1" source="6S9Bv0-yqiVQl9u7fNV4-129" target="MKiafoChqtkdiT2covnA-1">
          <mxGeometry relative="1" as="geometry">
            <mxPoint x="460" y="1693" as="sourcePoint" />
            <mxPoint x="525" y="1660" as="targetPoint" />
          </mxGeometry>
        </mxCell>
        <mxCell id="MKiafoChqtkdiT2covnA-3" value="price" style="ellipse;whiteSpace=wrap;html=1;strokeWidth=1;fontStyle=1" vertex="1" parent="1">
          <mxGeometry x="516.5" y="1550" width="125" height="50" as="geometry" />
        </mxCell>
        <mxCell id="MKiafoChqtkdiT2covnA-4" style="edgeStyle=none;shape=connector;rounded=0;orthogonalLoop=1;jettySize=auto;html=1;exitX=1;exitY=0;exitDx=0;exitDy=0;entryX=0.5;entryY=1;entryDx=0;entryDy=0;align=center;verticalAlign=middle;fontFamily=Helvetica;fontSize=11;fontColor=default;labelBackgroundColor=default;endArrow=none;endFill=0;strokeWidth=1;fontStyle=1" edge="1" parent="1" source="6S9Bv0-yqiVQl9u7fNV4-129" target="MKiafoChqtkdiT2covnA-3">
          <mxGeometry relative="1" as="geometry">
            <mxPoint x="480" y="1626" as="sourcePoint" />
            <mxPoint x="543" y="1663" as="targetPoint" />
          </mxGeometry>
        </mxCell>
        <mxCell id="MKiafoChqtkdiT2covnA-5" value="name" style="ellipse;whiteSpace=wrap;html=1;strokeWidth=1;fontStyle=1" vertex="1" parent="1">
          <mxGeometry x="-800" y="978" width="125" height="50" as="geometry" />
        </mxCell>
        <mxCell id="MKiafoChqtkdiT2covnA-6" style="edgeStyle=none;shape=connector;rounded=0;orthogonalLoop=1;jettySize=auto;html=1;exitX=0;exitY=1;exitDx=0;exitDy=0;entryX=0.5;entryY=0;entryDx=0;entryDy=0;align=center;verticalAlign=middle;fontFamily=Helvetica;fontSize=11;fontColor=default;labelBackgroundColor=default;endArrow=none;endFill=0;strokeWidth=1;fontStyle=1" edge="1" parent="1" source="6S9Bv0-yqiVQl9u7fNV4-14" target="MKiafoChqtkdiT2covnA-5">
          <mxGeometry relative="1" as="geometry">
            <mxPoint x="-400" y="724" as="sourcePoint" />
            <mxPoint x="-510" y="684" as="targetPoint" />
          </mxGeometry>
        </mxCell>
        <mxCell id="MKiafoChqtkdiT2covnA-7" value="total_price" style="ellipse;whiteSpace=wrap;html=1;strokeWidth=1;fontStyle=1" vertex="1" parent="1">
          <mxGeometry x="-650" y="761" width="125" height="50" as="geometry" />
        </mxCell>
        <mxCell id="MKiafoChqtkdiT2covnA-8" style="edgeStyle=none;shape=connector;rounded=0;orthogonalLoop=1;jettySize=auto;html=1;entryX=0;entryY=0.75;entryDx=0;entryDy=0;align=center;verticalAlign=middle;fontFamily=Helvetica;fontSize=11;fontColor=default;labelBackgroundColor=default;endArrow=none;endFill=0;exitX=1;exitY=0.5;exitDx=0;exitDy=0;strokeWidth=1;fontStyle=1" edge="1" parent="1" source="MKiafoChqtkdiT2covnA-7" target="6S9Bv0-yqiVQl9u7fNV4-14">
          <mxGeometry relative="1" as="geometry">
            <mxPoint x="-287" y="733" as="sourcePoint" />
            <mxPoint x="-282" y="949" as="targetPoint" />
          </mxGeometry>
        </mxCell>
        <mxCell id="MKiafoChqtkdiT2covnA-9" style="edgeStyle=none;shape=connector;rounded=0;orthogonalLoop=1;jettySize=auto;html=1;exitX=0;exitY=0.5;exitDx=0;exitDy=0;entryX=1;entryY=0.5;entryDx=0;entryDy=0;align=center;verticalAlign=middle;fontFamily=Helvetica;fontSize=11;fontColor=default;labelBackgroundColor=default;endArrow=none;endFill=0;strokeWidth=1;fontStyle=1" edge="1" parent="1" source="6S9Bv0-yqiVQl9u7fNV4-82" target="6S9Bv0-yqiVQl9u7fNV4-286">
          <mxGeometry relative="1" as="geometry">
            <mxPoint x="182" y="-314" as="sourcePoint" />
            <mxPoint x="118" y="-352" as="targetPoint" />
          </mxGeometry>
        </mxCell>
        <mxCell id="MKiafoChqtkdiT2covnA-10" value="&lt;b&gt;&lt;font color=&quot;#fa0000&quot; style=&quot;font-size: 20px;&quot;&gt;1&lt;/font&gt;&lt;/b&gt;" style="text;strokeColor=none;fillColor=none;spacingLeft=4;spacingRight=4;overflow=hidden;rotatable=0;points=[[0,0.5],[1,0.5]];portConstraint=eastwest;fontSize=11;whiteSpace=wrap;html=1;fontFamily=Helvetica;fontColor=default;labelBackgroundColor=none;" vertex="1" parent="1">
          <mxGeometry x="-310" y="628" width="20" height="30" as="geometry" />
        </mxCell>
        <mxCell id="MKiafoChqtkdiT2covnA-11" value="&lt;font style=&quot;font-size: 18px;&quot;&gt;vertreibt&lt;/font&gt;" style="shape=rhombus;perimeter=rhombusPerimeter;whiteSpace=wrap;html=1;align=center;fontFamily=Helvetica;fontSize=11;labelBackgroundColor=default;strokeWidth=1;fontStyle=1" vertex="1" parent="1">
          <mxGeometry x="705" y="-352" width="135" height="60" as="geometry" />
        </mxCell>
        <mxCell id="MKiafoChqtkdiT2covnA-12" style="edgeStyle=none;rounded=0;orthogonalLoop=1;jettySize=auto;html=1;exitX=1;exitY=0.5;exitDx=0;exitDy=0;entryX=0.5;entryY=0;entryDx=0;entryDy=0;endArrow=none;endFill=0;strokeWidth=1;fontStyle=1" edge="1" parent="1" source="MKiafoChqtkdiT2covnA-11" target="6S9Bv0-yqiVQl9u7fNV4-15">
          <mxGeometry relative="1" as="geometry">
            <mxPoint x="880" y="-270" as="sourcePoint" />
            <mxPoint x="998" y="404" as="targetPoint" />
          </mxGeometry>
        </mxCell>
        <mxCell id="MKiafoChqtkdiT2covnA-13" style="edgeStyle=none;shape=connector;rounded=0;orthogonalLoop=1;jettySize=auto;html=1;exitX=0;exitY=0.5;exitDx=0;exitDy=0;entryX=1;entryY=0.5;entryDx=0;entryDy=0;align=center;verticalAlign=middle;fontFamily=Helvetica;fontSize=11;fontColor=default;labelBackgroundColor=default;endArrow=none;endFill=0;strokeWidth=1;fontStyle=1" edge="1" parent="1" source="MKiafoChqtkdiT2covnA-11" target="6S9Bv0-yqiVQl9u7fNV4-82">
          <mxGeometry relative="1" as="geometry">
            <mxPoint x="705" y="-323.42999999999995" as="sourcePoint" />
            <mxPoint x="459" y="-323.42999999999995" as="targetPoint" />
          </mxGeometry>
        </mxCell>
        <mxCell id="MKiafoChqtkdiT2covnA-14" style="edgeStyle=none;shape=connector;rounded=0;orthogonalLoop=1;jettySize=auto;html=1;exitX=1;exitY=0.5;exitDx=0;exitDy=0;entryX=0;entryY=0.5;entryDx=0;entryDy=0;align=center;verticalAlign=middle;fontFamily=Helvetica;fontSize=11;fontColor=default;labelBackgroundColor=default;endArrow=none;endFill=0;strokeWidth=1;fontStyle=1" edge="1" source="MKiafoChqtkdiT2covnA-18" target="MKiafoChqtkdiT2covnA-21" parent="1">
          <mxGeometry relative="1" as="geometry" />
        </mxCell>
        <mxCell id="MKiafoChqtkdiT2covnA-16" style="edgeStyle=none;shape=connector;rounded=0;orthogonalLoop=1;jettySize=auto;html=1;exitX=0;exitY=0.5;exitDx=0;exitDy=0;entryX=1;entryY=0.5;entryDx=0;entryDy=0;align=center;verticalAlign=middle;fontFamily=Helvetica;fontSize=11;fontColor=default;labelBackgroundColor=default;endArrow=none;endFill=0;strokeWidth=1;fontStyle=1" edge="1" source="MKiafoChqtkdiT2covnA-18" target="MKiafoChqtkdiT2covnA-22" parent="1">
          <mxGeometry relative="1" as="geometry" />
        </mxCell>
        <mxCell id="MKiafoChqtkdiT2covnA-17" style="edgeStyle=none;shape=connector;rounded=0;orthogonalLoop=1;jettySize=auto;html=1;exitX=0.5;exitY=1;exitDx=0;exitDy=0;entryX=0.5;entryY=0;entryDx=0;entryDy=0;align=center;verticalAlign=middle;fontFamily=Helvetica;fontSize=11;fontColor=default;labelBackgroundColor=default;endArrow=none;endFill=0;strokeWidth=1;fontStyle=1" edge="1" source="MKiafoChqtkdiT2covnA-40" target="6S9Bv0-yqiVQl9u7fNV4-82" parent="1">
          <mxGeometry relative="1" as="geometry">
            <mxPoint x="440.88" y="-414" as="targetPoint" />
          </mxGeometry>
        </mxCell>
        <mxCell id="MKiafoChqtkdiT2covnA-18" value="&lt;font style=&quot;font-size: 20px;&quot;&gt;CaseSize&lt;/font&gt;" style="rounded=0;whiteSpace=wrap;html=1;strokeWidth=1;fontStyle=1" vertex="1" parent="1">
          <mxGeometry x="297" y="-550" width="135" height="60" as="geometry" />
        </mxCell>
        <mxCell id="MKiafoChqtkdiT2covnA-21" value="name" style="ellipse;whiteSpace=wrap;html=1;strokeWidth=1;fontStyle=1" vertex="1" parent="1">
          <mxGeometry x="500" y="-545" width="125" height="50" as="geometry" />
        </mxCell>
        <mxCell id="MKiafoChqtkdiT2covnA-22" value="&lt;u&gt;ID&lt;/u&gt;" style="ellipse;whiteSpace=wrap;html=1;strokeWidth=1;fontStyle=1" vertex="1" parent="1">
          <mxGeometry x="108.88" y="-545" width="125" height="50" as="geometry" />
        </mxCell>
        <mxCell id="MKiafoChqtkdiT2covnA-24" style="edgeStyle=none;shape=connector;rounded=0;orthogonalLoop=1;jettySize=auto;html=1;exitX=1;exitY=0.5;exitDx=0;exitDy=0;entryX=0;entryY=0.5;entryDx=0;entryDy=0;align=center;verticalAlign=middle;fontFamily=Helvetica;fontSize=11;fontColor=default;labelBackgroundColor=default;endArrow=none;endFill=0;strokeWidth=1;fontStyle=1;" edge="1" source="MKiafoChqtkdiT2covnA-26" target="MKiafoChqtkdiT2covnA-27" parent="1">
          <mxGeometry relative="1" as="geometry" />
        </mxCell>
        <mxCell id="MKiafoChqtkdiT2covnA-25" style="edgeStyle=none;shape=connector;rounded=0;orthogonalLoop=1;jettySize=auto;html=1;exitX=0;exitY=0.5;exitDx=0;exitDy=0;entryX=1;entryY=0.5;entryDx=0;entryDy=0;align=center;verticalAlign=middle;fontFamily=Helvetica;fontSize=11;fontColor=default;labelBackgroundColor=default;endArrow=none;endFill=0;strokeWidth=1;fontStyle=1" edge="1" source="MKiafoChqtkdiT2covnA-26" target="MKiafoChqtkdiT2covnA-28" parent="1">
          <mxGeometry relative="1" as="geometry" />
        </mxCell>
        <mxCell id="MKiafoChqtkdiT2covnA-26" value="&lt;font style=&quot;font-size: 20px;&quot;&gt;Efficiency_&lt;br&gt;Levels&lt;/font&gt;" style="rounded=0;whiteSpace=wrap;html=1;strokeWidth=1;fontStyle=1" vertex="1" parent="1">
          <mxGeometry x="297" y="831" width="135" height="60" as="geometry" />
        </mxCell>
        <mxCell id="MKiafoChqtkdiT2covnA-27" value="name" style="ellipse;whiteSpace=wrap;html=1;strokeWidth=1;fontStyle=1" vertex="1" parent="1">
          <mxGeometry x="505.5" y="841" width="125" height="50" as="geometry" />
        </mxCell>
        <mxCell id="MKiafoChqtkdiT2covnA-28" value="&lt;u&gt;ID&lt;/u&gt;" style="ellipse;whiteSpace=wrap;html=1;strokeWidth=1;fontStyle=1" vertex="1" parent="1">
          <mxGeometry x="105.5" y="841" width="125" height="50" as="geometry" />
        </mxCell>
        <mxCell id="MKiafoChqtkdiT2covnA-29" value="efficiencyLevel" style="ellipse;whiteSpace=wrap;html=1;strokeWidth=1;fontStyle=1" vertex="1" parent="1">
          <mxGeometry x="302" y="911" width="125" height="50" as="geometry" />
        </mxCell>
        <mxCell id="MKiafoChqtkdiT2covnA-30" style="edgeStyle=none;shape=connector;rounded=0;orthogonalLoop=1;jettySize=auto;html=1;exitX=0.5;exitY=1;exitDx=0;exitDy=0;entryX=0.5;entryY=0;entryDx=0;entryDy=0;align=center;verticalAlign=middle;fontFamily=Helvetica;fontSize=11;fontColor=default;labelBackgroundColor=default;endArrow=none;endFill=0;strokeWidth=1;fontStyle=1;" edge="1" parent="1" source="MKiafoChqtkdiT2covnA-26" target="MKiafoChqtkdiT2covnA-29">
          <mxGeometry relative="1" as="geometry">
            <mxPoint x="451.75" y="871" as="sourcePoint" />
            <mxPoint x="515.75" y="876" as="targetPoint" />
          </mxGeometry>
        </mxCell>
        <mxCell id="MKiafoChqtkdiT2covnA-31" style="edgeStyle=none;shape=connector;rounded=0;orthogonalLoop=1;jettySize=auto;html=1;entryX=0.5;entryY=1;entryDx=0;entryDy=0;align=center;verticalAlign=middle;fontFamily=Helvetica;fontSize=11;fontColor=default;labelBackgroundColor=default;endArrow=none;endFill=0;strokeWidth=1;fontStyle=1;exitX=0.5;exitY=0;exitDx=0;exitDy=0;" edge="1" parent="1" source="MKiafoChqtkdiT2covnA-52" target="6S9Bv0-yqiVQl9u7fNV4-18">
          <mxGeometry relative="1" as="geometry">
            <mxPoint x="366.5" y="831" as="sourcePoint" />
            <mxPoint x="508.5" y="876" as="targetPoint" />
            <Array as="points" />
          </mxGeometry>
        </mxCell>
        <mxCell id="MKiafoChqtkdiT2covnA-32" style="edgeStyle=none;shape=connector;rounded=0;orthogonalLoop=1;jettySize=auto;html=1;exitX=1;exitY=0.5;exitDx=0;exitDy=0;entryX=0;entryY=0.5;entryDx=0;entryDy=0;align=center;verticalAlign=middle;fontFamily=Helvetica;fontSize=11;fontColor=default;labelBackgroundColor=default;endArrow=none;endFill=0;strokeWidth=1;fontStyle=1" edge="1" source="MKiafoChqtkdiT2covnA-34" target="MKiafoChqtkdiT2covnA-35" parent="1">
          <mxGeometry relative="1" as="geometry" />
        </mxCell>
        <mxCell id="MKiafoChqtkdiT2covnA-33" style="edgeStyle=none;shape=connector;rounded=0;orthogonalLoop=1;jettySize=auto;html=1;exitX=0;exitY=0.5;exitDx=0;exitDy=0;entryX=1;entryY=0.5;entryDx=0;entryDy=0;align=center;verticalAlign=middle;fontFamily=Helvetica;fontSize=11;fontColor=default;labelBackgroundColor=default;endArrow=none;endFill=0;strokeWidth=1;fontStyle=1" edge="1" source="MKiafoChqtkdiT2covnA-34" target="MKiafoChqtkdiT2covnA-36" parent="1">
          <mxGeometry relative="1" as="geometry" />
        </mxCell>
        <mxCell id="MKiafoChqtkdiT2covnA-34" value="&lt;font style=&quot;font-size: 20px;&quot;&gt;socket&lt;/font&gt;" style="rounded=0;whiteSpace=wrap;html=1;strokeWidth=1;fontStyle=1" vertex="1" parent="1">
          <mxGeometry x="297" y="173" width="135" height="60" as="geometry" />
        </mxCell>
        <mxCell id="MKiafoChqtkdiT2covnA-35" value="name" style="ellipse;whiteSpace=wrap;html=1;strokeWidth=1;fontStyle=1" vertex="1" parent="1">
          <mxGeometry x="508" y="178" width="125" height="50" as="geometry" />
        </mxCell>
        <mxCell id="MKiafoChqtkdiT2covnA-36" value="&lt;u&gt;ID&lt;/u&gt;" style="ellipse;whiteSpace=wrap;html=1;strokeWidth=1;fontStyle=1" vertex="1" parent="1">
          <mxGeometry x="112.5" y="178" width="125" height="50" as="geometry" />
        </mxCell>
        <mxCell id="MKiafoChqtkdiT2covnA-37" style="edgeStyle=none;shape=connector;rounded=0;orthogonalLoop=1;jettySize=auto;html=1;exitX=0.5;exitY=1;exitDx=0;exitDy=0;entryX=0.5;entryY=0;entryDx=0;entryDy=0;align=center;verticalAlign=middle;fontFamily=Helvetica;fontSize=11;fontColor=default;labelBackgroundColor=default;endArrow=none;endFill=0;strokeWidth=1;fontStyle=1" edge="1" parent="1" source="MKiafoChqtkdiT2covnA-48" target="MKiafoChqtkdiT2covnA-34">
          <mxGeometry relative="1" as="geometry">
            <mxPoint x="342.5" y="62" as="sourcePoint" />
            <mxPoint x="399.5" y="102" as="targetPoint" />
          </mxGeometry>
        </mxCell>
        <mxCell id="MKiafoChqtkdiT2covnA-38" style="edgeStyle=none;shape=connector;rounded=0;orthogonalLoop=1;jettySize=auto;html=1;exitX=0.5;exitY=1;exitDx=0;exitDy=0;entryX=0.5;entryY=0;entryDx=0;entryDy=0;align=center;verticalAlign=middle;fontFamily=Helvetica;fontSize=11;fontColor=default;labelBackgroundColor=default;endArrow=none;endFill=0;strokeWidth=1;fontStyle=1" edge="1" parent="1" source="MKiafoChqtkdiT2covnA-50" target="6S9Bv0-yqiVQl9u7fNV4-90">
          <mxGeometry relative="1" as="geometry">
            <mxPoint x="372.17" y="203" as="sourcePoint" />
            <mxPoint x="372.17" y="337" as="targetPoint" />
          </mxGeometry>
        </mxCell>
        <mxCell id="MKiafoChqtkdiT2covnA-39" value="&lt;b&gt;&lt;font color=&quot;#fa0000&quot; style=&quot;font-size: 20px;&quot;&gt;n&lt;/font&gt;&lt;/b&gt;" style="text;strokeColor=none;fillColor=none;spacingLeft=4;spacingRight=4;overflow=hidden;rotatable=0;points=[[0,0.5],[1,0.5]];portConstraint=eastwest;fontSize=11;whiteSpace=wrap;html=1;fontFamily=Helvetica;fontColor=default;labelBackgroundColor=none;" vertex="1" parent="1">
          <mxGeometry x="432.88" y="-352" width="27" height="30" as="geometry" />
        </mxCell>
        <mxCell id="MKiafoChqtkdiT2covnA-41" value="" style="edgeStyle=none;shape=connector;rounded=0;orthogonalLoop=1;jettySize=auto;html=1;exitX=0.5;exitY=1;exitDx=0;exitDy=0;entryX=0.5;entryY=0;entryDx=0;entryDy=0;align=center;verticalAlign=middle;fontFamily=Helvetica;fontSize=11;fontColor=default;labelBackgroundColor=default;endArrow=none;endFill=0;strokeWidth=1;fontStyle=1" edge="1" parent="1" source="MKiafoChqtkdiT2covnA-18" target="MKiafoChqtkdiT2covnA-40">
          <mxGeometry relative="1" as="geometry">
            <mxPoint x="370" y="-457" as="sourcePoint" />
            <mxPoint x="370" y="-352" as="targetPoint" />
          </mxGeometry>
        </mxCell>
        <mxCell id="MKiafoChqtkdiT2covnA-40" value="&lt;font style=&quot;font-size: 18px;&quot;&gt;bemisst&lt;/font&gt;" style="shape=rhombus;perimeter=rhombusPerimeter;whiteSpace=wrap;html=1;align=center;fontFamily=Helvetica;fontSize=11;labelBackgroundColor=default;strokeWidth=1;fontStyle=1" vertex="1" parent="1">
          <mxGeometry x="297" y="-450" width="135" height="60" as="geometry" />
        </mxCell>
        <mxCell id="MKiafoChqtkdiT2covnA-42" value="&lt;b&gt;&lt;font color=&quot;#fa0000&quot; style=&quot;font-size: 20px;&quot;&gt;n&lt;/font&gt;&lt;/b&gt;" style="text;strokeColor=none;fillColor=none;spacingLeft=4;spacingRight=4;overflow=hidden;rotatable=0;points=[[0,0.5],[1,0.5]];portConstraint=eastwest;fontSize=11;whiteSpace=wrap;html=1;fontFamily=Helvetica;fontColor=default;labelBackgroundColor=none;" vertex="1" parent="1">
          <mxGeometry x="343.5" y="-382" width="27" height="30" as="geometry" />
        </mxCell>
        <mxCell id="MKiafoChqtkdiT2covnA-43" value="&lt;b&gt;&lt;font color=&quot;#fa0000&quot; style=&quot;font-size: 20px;&quot;&gt;1&lt;/font&gt;&lt;/b&gt;" style="text;strokeColor=none;fillColor=none;spacingLeft=4;spacingRight=4;overflow=hidden;rotatable=0;points=[[0,0.5],[1,0.5]];portConstraint=eastwest;fontSize=11;whiteSpace=wrap;html=1;fontFamily=Helvetica;fontColor=default;labelBackgroundColor=none;" vertex="1" parent="1">
          <mxGeometry x="344" y="-495" width="20" height="30" as="geometry" />
        </mxCell>
        <mxCell id="MKiafoChqtkdiT2covnA-44" value="&lt;b&gt;&lt;font color=&quot;#fa0000&quot; style=&quot;font-size: 20px;&quot;&gt;1&lt;/font&gt;&lt;/b&gt;" style="text;strokeColor=none;fillColor=none;spacingLeft=4;spacingRight=4;overflow=hidden;rotatable=0;points=[[0,0.5],[1,0.5]];portConstraint=eastwest;fontSize=11;whiteSpace=wrap;html=1;fontFamily=Helvetica;fontColor=default;labelBackgroundColor=none;" vertex="1" parent="1">
          <mxGeometry x="345.88" y="142" width="27" height="30" as="geometry" />
        </mxCell>
        <mxCell id="MKiafoChqtkdiT2covnA-45" value="&lt;b&gt;&lt;font color=&quot;#fa0000&quot; style=&quot;font-size: 20px;&quot;&gt;1&lt;/font&gt;&lt;/b&gt;" style="text;strokeColor=none;fillColor=none;spacingLeft=4;spacingRight=4;overflow=hidden;rotatable=0;points=[[0,0.5],[1,0.5]];portConstraint=eastwest;fontSize=11;whiteSpace=wrap;html=1;fontFamily=Helvetica;fontColor=default;labelBackgroundColor=none;" vertex="1" parent="1">
          <mxGeometry x="344" y="228" width="27" height="30" as="geometry" />
        </mxCell>
        <mxCell id="MKiafoChqtkdiT2covnA-46" value="&lt;b&gt;&lt;font color=&quot;#fa0000&quot; style=&quot;font-size: 20px;&quot;&gt;n&lt;/font&gt;&lt;/b&gt;" style="text;strokeColor=none;fillColor=none;spacingLeft=4;spacingRight=4;overflow=hidden;rotatable=0;points=[[0,0.5],[1,0.5]];portConstraint=eastwest;fontSize=11;whiteSpace=wrap;html=1;fontFamily=Helvetica;fontColor=default;labelBackgroundColor=none;" vertex="1" parent="1">
          <mxGeometry x="344" y="322" width="27" height="30" as="geometry" />
        </mxCell>
        <mxCell id="MKiafoChqtkdiT2covnA-47" value="&lt;b&gt;&lt;font color=&quot;#fa0000&quot; style=&quot;font-size: 20px;&quot;&gt;n&lt;/font&gt;&lt;/b&gt;" style="text;strokeColor=none;fillColor=none;spacingLeft=4;spacingRight=4;overflow=hidden;rotatable=0;points=[[0,0.5],[1,0.5]];portConstraint=eastwest;fontSize=11;whiteSpace=wrap;html=1;fontFamily=Helvetica;fontColor=default;labelBackgroundColor=none;" vertex="1" parent="1">
          <mxGeometry x="344" y="43" width="27" height="30" as="geometry" />
        </mxCell>
        <mxCell id="MKiafoChqtkdiT2covnA-49" value="" style="edgeStyle=none;shape=connector;rounded=0;orthogonalLoop=1;jettySize=auto;html=1;exitX=0.5;exitY=1;exitDx=0;exitDy=0;entryX=0.5;entryY=0;entryDx=0;entryDy=0;align=center;verticalAlign=middle;fontFamily=Helvetica;fontSize=11;fontColor=default;labelBackgroundColor=default;endArrow=none;endFill=0;strokeWidth=1;fontStyle=1" edge="1" parent="1" source="6S9Bv0-yqiVQl9u7fNV4-16" target="MKiafoChqtkdiT2covnA-48">
          <mxGeometry relative="1" as="geometry">
            <mxPoint x="365" y="52" as="sourcePoint" />
            <mxPoint x="365" y="173" as="targetPoint" />
          </mxGeometry>
        </mxCell>
        <mxCell id="MKiafoChqtkdiT2covnA-48" value="&lt;font style=&quot;font-size: 18px;&quot;&gt;beinhaltet&lt;/font&gt;" style="shape=rhombus;perimeter=rhombusPerimeter;whiteSpace=wrap;html=1;align=center;fontFamily=Helvetica;fontSize=11;labelBackgroundColor=default;strokeWidth=1;fontStyle=1" vertex="1" parent="1">
          <mxGeometry x="297" y="82" width="135" height="60" as="geometry" />
        </mxCell>
        <mxCell id="MKiafoChqtkdiT2covnA-51" value="" style="edgeStyle=none;shape=connector;rounded=0;orthogonalLoop=1;jettySize=auto;html=1;exitX=0.5;exitY=1;exitDx=0;exitDy=0;entryX=0.5;entryY=0;entryDx=0;entryDy=0;align=center;verticalAlign=middle;fontFamily=Helvetica;fontSize=11;fontColor=default;labelBackgroundColor=default;endArrow=none;endFill=0;strokeWidth=1;fontStyle=1" edge="1" parent="1" source="MKiafoChqtkdiT2covnA-34" target="MKiafoChqtkdiT2covnA-50">
          <mxGeometry relative="1" as="geometry">
            <mxPoint x="365" y="233" as="sourcePoint" />
            <mxPoint x="366" y="352" as="targetPoint" />
          </mxGeometry>
        </mxCell>
        <mxCell id="MKiafoChqtkdiT2covnA-50" value="&lt;font style=&quot;font-size: 18px;&quot;&gt;beinhaltet&lt;/font&gt;" style="shape=rhombus;perimeter=rhombusPerimeter;whiteSpace=wrap;html=1;align=center;fontFamily=Helvetica;fontSize=11;labelBackgroundColor=default;strokeWidth=1;fontStyle=1" vertex="1" parent="1">
          <mxGeometry x="297" y="258" width="135" height="60" as="geometry" />
        </mxCell>
        <mxCell id="MKiafoChqtkdiT2covnA-53" value="" style="edgeStyle=none;shape=connector;rounded=0;orthogonalLoop=1;jettySize=auto;html=1;entryX=0.5;entryY=1;entryDx=0;entryDy=0;align=center;verticalAlign=middle;fontFamily=Helvetica;fontSize=11;fontColor=default;labelBackgroundColor=default;endArrow=none;endFill=0;strokeWidth=1;fontStyle=1;exitX=0.5;exitY=0;exitDx=0;exitDy=0;" edge="1" parent="1" source="MKiafoChqtkdiT2covnA-26" target="MKiafoChqtkdiT2covnA-52">
          <mxGeometry relative="1" as="geometry">
            <mxPoint x="365" y="831.5" as="sourcePoint" />
            <mxPoint x="365" y="721.5" as="targetPoint" />
            <Array as="points" />
          </mxGeometry>
        </mxCell>
        <mxCell id="MKiafoChqtkdiT2covnA-52" value="&lt;span style=&quot;font-size: 18px;&quot;&gt;hat&lt;/span&gt;" style="shape=rhombus;perimeter=rhombusPerimeter;whiteSpace=wrap;html=1;align=center;fontFamily=Helvetica;fontSize=11;labelBackgroundColor=default;strokeWidth=1;fontStyle=1" vertex="1" parent="1">
          <mxGeometry x="297" y="751.5" width="135" height="60" as="geometry" />
        </mxCell>
        <mxCell id="MKiafoChqtkdiT2covnA-54" value="&lt;b&gt;&lt;font color=&quot;#fa0000&quot; style=&quot;font-size: 20px;&quot;&gt;n&lt;/font&gt;&lt;/b&gt;" style="text;strokeColor=none;fillColor=none;spacingLeft=4;spacingRight=4;overflow=hidden;rotatable=0;points=[[0,0.5],[1,0.5]];portConstraint=eastwest;fontSize=11;whiteSpace=wrap;html=1;fontFamily=Helvetica;fontColor=default;labelBackgroundColor=none;" vertex="1" parent="1">
          <mxGeometry x="341" y="711.5" width="27" height="30" as="geometry" />
        </mxCell>
        <mxCell id="MKiafoChqtkdiT2covnA-55" value="&lt;b&gt;&lt;font color=&quot;#fa0000&quot; style=&quot;font-size: 20px;&quot;&gt;1&lt;/font&gt;&lt;/b&gt;" style="text;strokeColor=none;fillColor=none;spacingLeft=4;spacingRight=4;overflow=hidden;rotatable=0;points=[[0,0.5],[1,0.5]];portConstraint=eastwest;fontSize=11;whiteSpace=wrap;html=1;fontFamily=Helvetica;fontColor=default;labelBackgroundColor=none;" vertex="1" parent="1">
          <mxGeometry x="343.5" y="804.5" width="27" height="30" as="geometry" />
        </mxCell>
        <mxCell id="MKiafoChqtkdiT2covnA-56" value="&lt;b&gt;&lt;font color=&quot;#fa0000&quot; style=&quot;font-size: 20px;&quot;&gt;1&lt;/font&gt;&lt;/b&gt;" style="text;strokeColor=none;fillColor=none;spacingLeft=4;spacingRight=4;overflow=hidden;rotatable=0;points=[[0,0.5],[1,0.5]];portConstraint=eastwest;fontSize=11;whiteSpace=wrap;html=1;fontFamily=Helvetica;fontColor=default;labelBackgroundColor=none;" vertex="1" parent="1">
          <mxGeometry x="990" y="633" width="20" height="30" as="geometry" />
        </mxCell>
      </root>
    </mxGraphModel>
  </diagram>
</mxfile>
